<?xml version="1.0" encoding="UTF-8" standalone="no"?>
<!-- Created with Inkscape (http://www.inkscape.org/) -->

<svg
   width="210mm"
   height="297mm"
   viewBox="0 0 210 297"
   version="1.1"
   id="svg1"
   xml:space="preserve"
   inkscape:version="1.4.3 (0d15f75042, 2025-12-25)"
   sodipodi:docname="key001.svg"
   xmlns:inkscape="http://www.inkscape.org/namespaces/inkscape"
   xmlns:sodipodi="http://sodipodi.sourceforge.net/DTD/sodipodi-0.dtd"
   xmlns="http://www.w3.org/2000/svg"
   xmlns:svg="http://www.w3.org/2000/svg"><sodipodi:namedview
     id="namedview1"
     pagecolor="#ffffff"
     bordercolor="#666666"
     borderopacity="1.0"
     inkscape:showpageshadow="2"
     inkscape:pageopacity="0.0"
     inkscape:pagecheckerboard="0"
     inkscape:deskcolor="#d1d1d1"
     inkscape:document-units="mm"
     inkscape:zoom="1.0520974"
     inkscape:cx="257.58072"
     inkscape:cy="544.15116"
     inkscape:window-width="2560"
     inkscape:window-height="1383"
     inkscape:window-x="0"
     inkscape:window-y="0"
     inkscape:window-maximized="1"
     inkscape:current-layer="layer1" /><defs
     id="defs1" /><g
     inkscape:label="Layer 1"
     inkscape:groupmode="layer"
     id="layer1"><path
       style="fill:#000000;stroke-width:0.488701"
       d="m 32.54795,149.75384 c -1.286366,-0.38907 -2.045439,-0.80474 -2.511365,-1.37519 l -0.409474,-0.50136 -0.0762,-38.71758 -0.0762,-38.717581 -0.515192,-0.0961 c -1.281948,-0.239105 -1.914494,-0.873214 -1.818995,-1.823508 0.07699,-0.766253 0.48906,-1.231252 1.34181,-1.514227 0.83854,-0.27825 0.812401,-0.562672 -0.08315,-0.904641 -1.975217,-0.754245 -2.012866,-2.830086 -0.06535,-3.603177 0.415506,-0.16494 0.756458,-0.360938 0.757669,-0.435548 0.0011,-0.07462 -0.254054,-0.212722 -0.567247,-0.306915 -1.150404,-0.345981 -1.716638,-0.962309 -1.716638,-1.86848 0,-0.279413 0.111796,-0.677609 0.248438,-0.884879 0.257232,-0.39018 1.146752,-0.83205 1.943617,-0.965497 0.42876,-0.07178 0.437198,-0.08693 0.348699,-0.624802 -0.192506,-1.169961 -1.219629,-2.279907 -2.645986,-2.859334 l -0.809199,-0.328724 v -0.64626 c 0,-0.642689 0.0035,-0.647219 0.569436,-0.817529 0.767627,-0.230865 1.212977,-0.548535 1.686437,-1.202947 1.341203,-1.853803 -0.820738,-4.359656 -3.779929,-4.381226 -1.904644,-0.01387 -3.096693,1.000387 -2.36793,2.014776 0.202499,0.281872 0.197241,0.327082 -0.05732,0.4929 -0.772805,0.503406 -2.337965,0.286611 -3.387093,-0.469163 -1.143761,-0.823956 -1.491252,-2.072473 -0.91245,-3.278412 0.151759,-0.316177 0.240961,-0.60003 0.198233,-0.630787 -0.04275,-0.03075 -0.426307,-0.05595 -0.852407,-0.05602 -2.602013,-4.95e-4 -6.028299,-0.819755 -8.6209295,-2.061325 -4.2284398,-2.02494 -6.9560304,-5.066803 -8.08660188,-9.018355 -0.291075,-1.017347 -0.3204225,-1.388868 -0.2513176,-3.181337 0.066474,-1.724505 0.1395127,-2.200238 0.4859989,-3.165859 C 1.2255078,25.85111 2.1497252,24.46141 3.8068421,22.878455 6.0266958,20.757947 9.515663,19.111506 12.678219,18.692061 c 0.835684,-0.110835 1.016249,-0.170203 0.941032,-0.3094 -0.234234,-0.433476 -0.401218,-1.433643 -0.330948,-1.982318 0.230194,-1.797412 1.995948,-3.286201 4.697095,-3.960341 0.795449,-0.198525 1.307599,-0.242824 2.802208,-0.242377 2.243907,6.63e-4 3.791829,0.258728 5.83001,0.971948 1.352587,0.473307 1.428391,0.486742 1.853504,0.328504 1.349621,-0.502359 1.596383,-1.774275 0.522451,-2.692948 C 28.775314,10.618436 28.251344,10.3397 27.829179,10.185715 27.155755,9.9400834 26.910504,9.9104704 25.829666,9.9442814 l -1.231946,0.03854 0.02816,-0.616741 C 24.7015,7.7092383 26.431368,6.6227722 29.037668,6.5951962 l 1.239426,-0.01312 0.09004,-0.6188334 c 0.175651,-1.207145 0.933135,-2.298686 3.3389,-4.8113788 C 34.345725,0.48373559 34.913358,0 35.05768,0 c 0.318913,0 3.020147,2.8765745 3.811534,4.0589475 0.368647,0.5507824 0.654812,1.1840109 0.768421,1.7003694 l 0.181014,0.8227593 1.229041,0.0091 c 2.058991,0.01531 3.481892,0.6483415 4.211607,1.8736903 0.314292,0.5277686 0.394849,1.4053109 0.139442,1.5189339 -0.08508,0.03785 -0.513729,0.01282 -0.952536,-0.05562 -0.91216,-0.142274 -1.891833,0.01634 -2.767043,0.4480116 -1.611838,0.794979 -1.71492,2.349499 -0.198951,3.000207 l 0.598669,0.256936 1.412527,-0.481633 c 2.029715,-0.692079 3.578466,-0.950919 5.719767,-0.95594 1.181212,-0.0028 2.004764,0.05225 2.525867,0.168758 2.566856,0.573879 4.293083,1.75772 4.864126,3.335815 0.292238,0.80758 0.290581,1.323475 -0.0073,2.149775 -0.130438,0.362314 -0.216153,0.67327 -0.190499,0.691014 0.02563,0.01774 0.320964,0.06321 0.656253,0.101032 2.398634,0.270582 5.235575,1.328959 7.3606,2.746013 2.291042,1.52776 4.226775,3.909 5.08868,6.259836 0.466827,1.273262 0.481675,1.384539 0.489844,3.671634 0.0083,2.221102 -0.01605,2.428539 -0.411323,3.558845 -0.719083,2.056228 -2.073854,4.06757 -3.783359,5.616974 -2.947846,2.671751 -7.796721,4.536899 -12.28786,4.726596 -0.77536,0.03278 -1.408858,0.06518 -1.407774,0.072 10e-4,0.0067 0.138233,0.32541 0.304813,0.707887 0.166556,0.382469 0.302835,0.879509 0.302835,1.104524 0,1.611313 -1.921606,3.04046 -3.794062,2.821745 -0.821217,-0.09592 -1.036183,-0.309704 -0.79472,-0.790357 0.268523,-0.534494 0.104265,-1.055931 -0.457043,-1.450949 -1.133939,-0.797999 -3.122507,-0.691064 -4.678911,0.25161 -0.573957,0.347625 -1.349533,1.434884 -1.484012,2.080386 -0.217009,1.041614 0.722296,2.301868 2.012297,2.699893 l 0.66176,0.20418 v 0.603884 0.603885 l -0.808398,0.372225 c -1.556076,0.716496 -2.57322,1.8569 -2.603634,2.919138 -0.01653,0.57819 -0.0029,0.599145 0.440135,0.667274 1.421465,0.218692 2.134191,0.914857 2.027144,1.980051 -0.07822,0.778379 -0.625954,1.348177 -1.591502,1.655608 -0.760509,0.242153 -0.852027,0.48471 -0.245136,0.649733 0.516701,0.140505 1.212821,0.604529 1.499557,0.999599 0.118241,0.162922 0.215,0.584991 0.215,0.937926 0,0.806497 -0.51835,1.439684 -1.478828,1.806442 -0.860414,0.328551 -0.863345,0.610469 -0.0094,0.912456 1.235787,0.437077 1.72148,1.779943 0.924074,2.554911 -0.405502,0.394094 -1.230851,0.787169 -1.652845,0.787169 H 40.55438 l -0.0534,24.545661 c -0.02936,13.500125 -0.02995,25.299665 -0.0011,26.221225 l 0.05212,1.67555 2.515284,-0.03 2.515288,-0.03 0.05685,-1.34886 c 0.03129,-0.74188 0.09732,-1.39597 0.146753,-1.45354 0.05524,-0.0643 3.250841,-0.10468 8.292101,-0.10468 6.760079,0 8.232695,0.0264 8.375558,0.15033 0.123146,0.1068 0.161638,1.11541 0.132967,3.48301 l -0.04042,3.3327 -1.319834,0.0316 -1.319834,0.0316 -0.179216,-0.39087 c -0.816018,-1.77975 -4.200715,-1.99389 -5.502586,-0.34813 -0.310554,0.39259 -0.368966,0.63634 -0.417355,1.74153 -0.03615,0.82636 -0.122117,1.32439 -0.240753,1.39527 -0.101487,0.0606 -1.07161,0.12409 -2.155879,0.14106 l -1.971389,0.0308 -0.0421,1.67015 c -0.04949,1.96611 -0.314692,1.77226 2.480529,1.81338 l 1.828871,0.0269 0.08366,1.31641 c 0.09305,1.46344 0.246119,1.78175 1.123603,2.33631 0.523395,0.33078 1.362345,0.56894 2.008577,0.57017 1.059793,0.002 2.273742,-0.59794 2.708467,-1.33859 l 0.313181,-0.53358 1.300995,0.0314 1.300997,0.0314 0.04042,3.33269 c 0.02865,2.36759 -0.0094,3.37621 -0.132967,3.483 -0.142862,0.1239 -1.615478,0.15033 -8.375558,0.15033 -5.631862,0 -8.23363,-0.0366 -8.30243,-0.1167 -0.05512,-0.0642 -0.101945,-0.70594 -0.10407,-1.42612 l -0.004,-1.30941 h -2.564711 -2.565161 l -0.045,4.14122 c -0.04365,4.02003 -0.05472,4.15438 -0.378889,4.59042 -0.430804,0.5795 -1.264714,1.10178 -2.326203,1.45691 -0.725428,0.24269 -1.093532,0.28746 -2.597843,0.31594 -1.577033,0.0298 -1.841777,0.006 -2.641949,-0.23578 z M 32.101599,44.840355 c -0.09707,-0.98543 -0.432776,-1.764582 -1.029122,-2.38855 -0.487088,-0.509649 -0.958826,-0.720516 -1.670596,-0.746766 -0.748225,-0.02759 -0.89317,-0.278615 -0.527547,-0.913638 0.417441,-0.725005 1.245845,-1.132707 2.462951,-1.212147 l 0.919063,-0.05998 0.09095,-0.561931 c 0.14309,-0.884097 2.291643,-3.763942 2.731727,-3.661512 0.229114,0.05333 1.338779,1.322643 1.955046,2.236326 0.249504,0.36991 0.540278,0.978293 0.646174,1.351966 l 0.192534,0.679401 0.830331,0.0287 c 0.995415,0.03441 1.671599,0.267532 2.187114,0.754026 0.373965,0.35291 0.57412,1.083917 0.342444,1.250676 -0.06325,0.04553 -0.354743,0.08878 -0.647747,0.0961 -1.431846,0.03579 -2.65173,1.605634 -2.65173,3.412455 0,0.321779 0.01716,0.584991 0.03806,0.584909 0.02096,-8.3e-5 0.589108,-0.382673 1.262559,-0.850184 1.252453,-0.869463 2.729156,-1.500989 4.154344,-1.77664 l 0.654232,-0.126538 -0.930348,-0.73082 c -3.529327,-2.772408 -3.631063,-7.088756 -0.223973,-9.502306 2.527269,-1.790295 6.589325,-1.95724 9.002107,-0.369974 2.837318,1.866545 1.978205,5.020931 -1.447005,5.312928 -1.3518,0.115241 -2.530242,-0.327343 -3.090771,-1.160796 l -0.333811,-0.496358 -0.271378,0.434944 c -0.16143,0.258734 -0.272377,0.701601 -0.273867,1.09315 -0.0083,2.137458 3.258475,3.760704 6.775928,3.367084 2.217874,-0.248192 3.791841,-0.798766 5.508692,-1.926946 3.140931,-2.063973 4.821947,-5.501088 4.333312,-8.860179 -0.531302,-3.652424 -3.237613,-6.59251 -7.360078,-7.995845 -1.473887,-0.501728 -2.405312,-0.617298 -3.204481,-0.397611 -1.849032,0.508289 -3.830258,-0.03142 -4.028917,-1.097514 -0.07263,-0.390021 -0.03116,-0.45005 0.539368,-0.780076 1.518993,-0.878657 0.657078,-2.469636 -1.593003,-2.940469 -0.798992,-0.16719 -0.941251,-0.167519 -1.860093,-0.0043 -2.209899,0.392539 -3.650507,1.547116 -4.164236,3.337429 -0.424178,1.478227 0.685048,3.327927 2.253007,3.757028 0.232719,0.06369 0.530654,0.03943 0.907364,-0.07387 0.52472,-0.15781 0.579788,-0.155077 0.854111,0.04238 0.427188,0.30749 0.594453,0.972605 0.390934,1.554493 -0.23812,0.680802 -1.470591,1.584244 -2.405505,1.763321 -1.495088,0.286374 -3.245101,-0.147025 -4.741146,-1.174169 -2.600838,-1.785669 -3.386443,-4.758358 -2.030947,-7.685022 l 0.367819,-0.794154 -0.690454,-0.458108 C 35.945264,16.89931 35.519717,16.55322 35.379347,16.38218 c -0.315584,-0.38455 -0.367091,-0.385257 -0.678328,-0.0093 -0.297737,0.359658 -0.69924,0.675474 -1.268487,0.997777 l -0.418374,0.236883 0.328735,0.618336 c 0.385414,0.724946 0.780126,2.253086 0.780126,3.020279 0,1.600461 -1.082698,3.608173 -2.538034,4.706423 -2.422722,1.828266 -5.872637,1.845647 -7.054698,0.03554 -0.43963,-0.67321 -0.393388,-1.680649 0.09322,-2.03091 0.294358,-0.21188 0.339754,-0.21451 0.8829,-0.05116 0.522853,0.157248 0.617936,0.15672 1.09457,-0.0061 1.027302,-0.350894 1.898106,-1.434192 2.11902,-2.636114 0.117533,-0.639416 -0.234319,-1.718019 -0.809565,-2.481761 -1.159291,-1.539167 -3.824806,-2.358286 -5.791811,-1.779835 -0.757499,0.222761 -1.787515,1.013426 -1.91421,1.469383 -0.148567,0.5347 0.162195,1.100434 0.739056,1.345421 0.58807,0.24975 0.7481,0.506 0.606278,0.970791 -0.269796,0.88417 -2.331289,1.353486 -4.071018,0.9268 -0.633956,-0.155484 -0.782522,-0.15471 -1.665504,0.0087 -1.75974,0.32561 -3.251942,0.982216 -4.855794,2.136667 -1.6861185,1.213671 -2.5398605,2.209262 -3.3056447,3.854882 -2.6456754,5.685379 1.7230826,12.225918 8.7638117,13.120447 1.720973,0.218652 3.047581,0.09847 4.420778,-0.400482 0.974815,-0.354203 2.066113,-1.136 2.40809,-1.725134 0.360128,-0.620394 0.43838,-1.672787 0.160006,-2.151791 -0.13148,-0.226259 -0.294006,-0.410106 -0.361152,-0.40855 -0.06714,0.0016 -0.24388,0.193195 -0.392748,0.425862 -0.397442,0.621157 -1.301008,1.028853 -2.407975,1.086487 -0.754395,0.03928 -1.039927,-0.0019 -1.751432,-0.252445 -2.571728,-0.905673 -2.717569,-3.489146 -0.287234,-5.087961 2.407405,-1.583729 6.441363,-1.417811 8.963235,0.368657 0.960167,0.680178 1.525576,1.326058 2.021184,2.30887 1.177315,2.334646 0.129008,5.460582 -2.485352,7.411084 l -0.675631,0.504066 1.037826,0.250183 c 1.545806,0.372641 2.907097,0.992077 3.933524,1.789895 0.502933,0.390929 0.975667,0.716557 1.050509,0.723629 0.07588,0.0075 0.09904,-0.363187 0.05231,-0.837329 z"
       id="path1" /></g></svg>
