<?xml version="1.0" encoding="UTF-8" standalone="no"?>
<!-- Created with Inkscape (http://www.inkscape.org/) -->

<svg
   width="115mm"
   height="160mm"
   viewBox="0 0 115 160"
   version="1.1"
   id="svg1"
   inkscape:version="1.4.2 (ebf0e940d0, 2025-05-08)"
   sodipodi:docname="Lantern2_SideC.svg"
   xmlns:inkscape="http://www.inkscape.org/namespaces/inkscape"
   xmlns:sodipodi="http://sodipodi.sourceforge.net/DTD/sodipodi-0.dtd"
   xmlns="http://www.w3.org/2000/svg"
   xmlns:svg="http://www.w3.org/2000/svg">
  <sodipodi:namedview
     id="namedview1"
     pagecolor="#ffffff"
     bordercolor="#666666"
     borderopacity="1.0"
     inkscape:showpageshadow="2"
     inkscape:pageopacity="0.0"
     inkscape:pagecheckerboard="0"
     inkscape:deskcolor="#d1d1d1"
     inkscape:document-units="mm"
     inkscape:zoom="1.4954495"
     inkscape:cx="387.84325"
     inkscape:cy="304.59069"
     inkscape:window-width="2560"
     inkscape:window-height="1383"
     inkscape:window-x="0"
     inkscape:window-y="0"
     inkscape:window-maximized="1"
     inkscape:current-layer="layer1" />
  <defs
     id="defs1" />
  <g
     inkscape:label="Layer 1"
     inkscape:groupmode="layer"
     id="layer1">
    <path
       d="m 24.751955,26.873166 -0.542205,-0.78698 -0.782575,-0.721178 -0.376854,-0.13113 -0.38817,0.01728 -0.353948,0.155255 -0.274186,0.282521 -0.149426,0.176127 -0.07719,-0.120016 -0.214415,-0.379699 -0.380174,-0.274525 -0.473692,-0.134925 -0.495175,0.03951 -0.195712,0.02189 -0.163996,-0.135196 -0.337413,-0.216313 -0.43493,-0.05631 -0.48074,0.101312 -0.474844,0.256295 -0.276897,0.17877 -0.01037,-0.125437 0.211772,-0.412228 0.398471,-0.497817 0.478504,-0.466306 0.452075,-0.317625 0.604076,-0.253585 0.512726,-0.06079 0.529533,0.140414 0.654699,0.349746 0.952941,0.425375 0.574666,0.09494 -0.145903,-0.22458 -0.500393,-1.394445 0.105311,-0.03829 0.247214,0.192391 0.27073,0.187173 0.262801,0.02107 0.223632,-0.137499 0.153289,-0.288688 0.160744,-0.430525 0.0677,-0.06058 0.06451,0.05171 0.305563,1.465194 0.113103,0.184191 0.221531,-0.142582 0.716299,-1.207746 0.311051,-0.518893 0.377327,-0.423206 0.435066,-0.324605 0.484603,-0.223225 0.525669,-0.118999 0.558402,-0.01193 0.58273,0.09792 0.598722,0.210688 0.293771,0.130317 -0.366417,0.07786 -0.502561,0.163929 -0.35815,0.248841 -0.216041,0.33599 -0.07604,0.425374 -0.0045,0.305359 -0.332669,0.02406 -0.38302,0.0881 -0.271949,0.21096 -0.173484,0.349814 -0.08783,0.504797 -0.03334,0.397861 -0.342834,-0.0248 -0.654563,0.09623 -0.478368,0.43188 -0.335516,0.818695 -0.226003,1.256742 -0.0368,0.211095 -0.03998,-0.06702 v 0"
       style="fill:#000000;stroke-width:0.222059"
       id="path1-8" />
    <path
       d="M 8.0977689,23.837062 8.2708462,22.897131 8.2274075,21.833864 8.0536525,21.474631 7.7669296,21.21244 7.4068827,21.071891 7.0132911,21.077786 6.7830182,21.096626 6.8133102,20.957161 6.9302085,20.53714 6.8555291,20.074155 6.6158773,19.643765 6.2378586,19.3216 6.0840136,19.198671 6.0636563,18.987102 5.9780189,18.595543 5.7102641,18.248236 5.2987277,17.979946 4.7817524,17.825369 4.459506,17.755976 l 0.081388,-0.09603 0.441198,-0.141702 0.6337585,-0.07027 0.6681097,0.0086 0.5442583,0.09508 0.6064483,0.247824 0.4055187,0.31959 0.2752025,0.47376 0.2156351,0.710268 0.3730582,0.974627 0.3391746,0.473422 0.055637,-0.261921 0.6321321,-1.339892 0.101583,0.04744 0.038763,0.31078 0.059093,0.323792 0.170841,0.200726 0.255414,0.06092 0.31261,-0.09576 0.418056,-0.190765 0.09067,0.005 0.009,0.0822 -0.819982,1.252134 -0.05028,0.210213 0.257515,0.05577 1.360493,-0.347443 0.586864,-0.146987 0.566059,-0.03246 0.53719,0.07814 0.500528,0.184802 0.45587,0.287536 0.403282,0.386408 0.342767,0.481282 0.274389,0.572362 0.115543,0.299937 -0.314101,-0.204047 -0.471253,-0.239489 -0.429237,-0.07732 -0.390339,0.08484 -0.354557,0.247012 -0.219092,0.212721 -0.252229,-0.218143 -0.333143,-0.208587 -0.341411,-0.0431 -0.370077,0.124692 -0.419004,0.294854 -0.30502,0.257787 -0.224852,-0.259955 -0.530887,-0.394812 -0.643653,-0.03293 -0.8161198,0.341682 -1.0484934,0.728835 -0.1752459,0.123201 0.01911,-0.07563 6.78e-5,6.8e-5"
       style="fill:#000000;stroke-width:0.222059"
       id="path1-8-2" />
    <path
       d="m 50.782066,25.746063 -0.542205,-0.787048 -0.782575,-0.721111 -0.376853,-0.131129 -0.388171,0.01735 -0.353947,0.155187 -0.274186,0.282521 -0.149427,0.176127 -0.07719,-0.120015 -0.214415,-0.3797 -0.380174,-0.274524 -0.473692,-0.134925 -0.495175,0.03951 -0.195711,0.02189 -0.163997,-0.135195 -0.337413,-0.216313 -0.434929,-0.05631 -0.480741,0.101312 -0.474844,0.256228 -0.276897,0.178837 -0.01037,-0.125504 0.211772,-0.41216 0.398471,-0.497818 0.478504,-0.466306 0.452075,-0.317624 0.604076,-0.253585 0.512659,-0.06079 0.5296,0.140413 0.654699,0.349747 0.952942,0.425374 0.574665,0.09494 -0.145903,-0.22458 -0.500392,-1.394445 0.10531,-0.03829 0.247214,0.192391 0.27073,0.187173 0.262801,0.02108 0.223632,-0.1375 0.153289,-0.288756 0.160744,-0.430524 0.0677,-0.06052 0.06452,0.05171 0.305562,1.465194 0.113103,0.184191 0.221531,-0.142582 0.716299,-1.207747 0.311051,-0.518893 0.37726,-0.423206 0.435133,-0.324604 0.484603,-0.223225 0.52567,-0.119 0.558401,-0.01193 0.58273,0.09792 0.598723,0.210688 0.29377,0.130316 -0.366417,0.07787 -0.502561,0.163929 -0.358217,0.248841 -0.215974,0.335921 -0.07603,0.425375 -0.0047,0.305359 -0.332669,0.02406 -0.38302,0.0881 -0.271949,0.210959 -0.173484,0.349815 -0.08783,0.504797 -0.03334,0.397929 -0.342834,-0.0248 -0.654563,0.09623 -0.478368,0.431881 -0.335515,0.818695 -0.226004,1.256742 -0.0368,0.211094 -0.03998,-0.06709 2.71e-4,6.8e-5"
       style="fill:#000000;stroke-width:0.222059"
       id="path1-8-0" />
    <path
       d="m 34.127812,22.709958 0.173078,-0.939998 -0.04337,-1.063267 -0.173755,-0.359166 -0.286723,-0.262259 -0.360047,-0.140481 -0.39366,0.0059 -0.230205,0.01884 0.03029,-0.139465 0.116899,-0.420021 -0.07468,-0.462985 -0.239692,-0.430389 -0.378005,-0.322165 -0.153832,-0.12293 -0.02033,-0.211569 -0.08566,-0.391558 -0.267748,-0.347307 -0.41155,-0.26829 -0.516995,-0.154577 -0.322233,-0.06939 0.08139,-0.09603 0.441232,-0.141701 0.633759,-0.07034 0.668048,0.0087 0.544306,0.09508 0.606448,0.247825 0.405519,0.31959 0.275203,0.473692 0.215567,0.710268 0.373126,0.974627 0.339175,0.473489 0.05564,-0.261988 0.632132,-1.339824 0.101583,0.04744 0.03876,0.31078 0.05909,0.323792 0.170841,0.200726 0.255415,0.06092 0.312609,-0.09576 0.418056,-0.190765 0.09067,0.005 0.009,0.0822 -0.819983,1.252134 -0.05028,0.210214 0.257515,0.05577 1.360493,-0.347442 0.586864,-0.146987 0.566059,-0.03246 0.53719,0.07813 0.500529,0.184801 0.455869,0.287536 0.403283,0.386409 0.342766,0.481282 0.274389,0.572361 0.115543,0.299938 -0.314101,-0.204047 -0.47132,-0.239489 -0.429237,-0.07732 -0.390271,0.08485 -0.354558,0.247011 -0.219091,0.212721 -0.25223,-0.218142 -0.333143,-0.208588 -0.341411,-0.0431 -0.370077,0.124691 -0.419072,0.294855 -0.304952,0.257719 -0.224851,-0.259888 -0.530888,-0.394811 -0.643653,-0.03294 -0.81612,0.341682 -1.048493,0.728836 -0.175246,0.123201 0.01911,-0.0757 v 1.35e-4"
       style="fill:#000000;stroke-width:0.222059"
       id="path1-8-2-0" />
    <path
       d="m 64.419868,20.439284 -0.542273,-0.787048 -0.782507,-0.72111 -0.376853,-0.131129 -0.388171,0.01735 -0.353948,0.155187 -0.274118,0.282521 -0.149494,0.176127 -0.07719,-0.120016 -0.214415,-0.379699 -0.380174,-0.274525 -0.473692,-0.134924 -0.495175,0.03951 -0.195712,0.02189 -0.163996,-0.135196 -0.337413,-0.216313 -0.434929,-0.05631 -0.480741,0.101312 -0.474844,0.256227 -0.276897,0.178838 -0.01037,-0.125505 0.211772,-0.41216 0.398403,-0.497817 0.478572,-0.466306 0.452075,-0.317625 0.604076,-0.253584 0.512659,-0.06079 0.5296,0.140414 0.654699,0.349746 0.952941,0.425375 0.574666,0.09494 -0.145903,-0.224581 -0.500392,-1.394445 0.10531,-0.03829 0.247214,0.192391 0.27073,0.187173 0.262801,0.02107 0.223632,-0.137499 0.153289,-0.288756 0.160744,-0.430525 0.0677,-0.06052 0.06452,0.05171 0.305562,1.465194 0.113103,0.184191 0.221531,-0.142582 0.716299,-1.207746 0.311051,-0.518893 0.377328,-0.423206 0.435065,-0.324605 0.484603,-0.223225 0.525602,-0.118999 0.558537,-0.01193 0.582797,0.09792 0.598384,0.210688 0.29411,0.130316 -0.366621,0.07786 -0.502832,0.163929 -0.35781,0.248841 -0.216178,0.335922 -0.0759,0.425374 -0.0047,0.305359 -0.332669,0.02406 -0.38302,0.0881 -0.271881,0.210959 -0.173552,0.349814 -0.08783,0.504798 -0.03334,0.397928 -0.342766,-0.0248 -0.654563,0.09623 -0.478436,0.43188 -0.335515,0.818695 -0.226004,1.256742 -0.0368,0.211095 -0.03998,-0.06709 2.71e-4,6.8e-5"
       style="fill:#000000;stroke-width:0.222059"
       id="path1-8-1" />
    <path
       d="m 43.195126,17.518316 0.173077,-0.93993 -0.04344,-1.063267 -0.173755,-0.359234 -0.286723,-0.262191 -0.360047,-0.140549 -0.393592,0.0059 -0.230205,0.01884 0.03022,-0.139397 0.116899,-0.420089 -0.07468,-0.462985 -0.239624,-0.430321 -0.378006,-0.322233 -0.153899,-0.12293 -0.02033,-0.211535 -0.08566,-0.391565 -0.267748,-0.347307 -0.41155,-0.268311 -0.516928,-0.154556 -0.3223,-0.06941 0.08139,-0.09602 0.441232,-0.141722 0.633759,-0.07028 0.668116,0.0086 0.544238,0.09507 0.606448,0.247811 0.405519,0.31959 0.275202,0.47374 0.215636,0.710267 0.373058,0.97456 0.339174,0.473489 0.05564,-0.26192 0.6322,-1.339892 0.101515,0.04744 0.03876,0.310848 0.05909,0.323791 0.170909,0.200727 0.255414,0.06085 0.312542,-0.09576 0.418124,-0.190764 0.09067,0.0051 0.009,0.08213 -0.82005,1.252134 -0.05028,0.210214 0.257515,0.05584 1.360561,-0.34751 0.586864,-0.146987 0.565991,-0.03246 0.53719,0.07813 0.500528,0.184801 0.45587,0.287536 0.403283,0.386408 0.342766,0.481283 0.274389,0.572361 0.115543,0.299938 -0.314101,-0.204047 -0.471253,-0.239489 -0.429237,-0.07732 -0.390339,0.08485 -0.354557,0.247011 -0.219092,0.212789 -0.252229,-0.21821 -0.333143,-0.208588 -0.341411,-0.0431 -0.370077,0.124692 -0.419004,0.294855 -0.304952,0.257786 -0.224919,-0.259955 -0.530888,-0.394811 -0.643653,-0.03287 -0.81612,0.341614 -1.048425,0.728904 -0.175314,0.1232 0.01911,-0.0757 6.8e-5,6.8e-5"
       style="fill:#000000;stroke-width:0.222059"
       id="path1-8-2-3" />
    <path
       d="m 25.694732,16.516921 -0.778713,-0.554064 -0.982014,-0.410059 -0.399013,0.0057 -0.358827,0.14902 -0.279539,0.266935 -0.160947,0.359234 -0.08024,0.216651 -0.113578,-0.0864 -0.331313,-0.28347 -0.451126,-0.127944 -0.491312,0.03531 -0.451804,0.206419 -0.176398,0.08749 -0.200387,-0.07095 -0.391084,-0.08789 -0.427882,0.09589 -0.417107,0.259616 -0.358556,0.403214 -0.1991,0.262734 -0.05266,-0.114324 0.05808,-0.459732 0.204115,-0.604144 0.290247,-0.60184 0.316134,-0.453092 0.480875,-0.444891 0.46102,-0.232441 0.545661,-0.0492 0.7348,0.104768 1.041039,0.07373 0.572429,-0.107275 -0.213941,-0.16115 -0.947114,-1.139166 0.08593,-0.07204 0.29804,0.09623 0.318438,0.08329 0.254127,-0.07 0.163115,-0.205741 0.04534,-0.323764 0.0038,-0.459557 0.0429,-0.08003 0.07827,0.02652 0.788268,1.272362 0.169282,0.134383 0.159389,-0.20974 0.26009,-1.379942 0.114797,-0.594 0.209808,-0.526693 0.297836,-0.453864 0.379022,-0.3755043 0.453227,-0.2916156 0.520655,-0.2022105 0.581103,-0.1072618 0.63464,-0.0068 0.320674,0.022024 -0.317693,0.1984426 -0.416226,0.3259397 -0.251416,0.3563259 -0.0881,0.389593 0.074,0.425734 0.100227,0.288478 -0.304342,0.136375 -0.329823,0.213792 -0.18331,0.291222 -0.04337,0.388076 0.09006,0.50437 0.104768,0.385324 -0.330636,0.09393 -0.582188,0.314304 -0.301835,0.569447 -0.03524,0.88409 0.217465,1.258233 0.03754,0.210959 -0.06052,-0.04933 h 1.36e-4"
       style="fill:#000000;stroke-width:0.222059"
       id="path1-8-08" />
    <path
       d="M 9.9424587,16.263065 9.7836125,15.320627 9.3791781,14.336309 9.0930652,14.058193 8.7338992,13.909851 8.3474909,13.900973 7.9796507,14.041116 7.7697758,14.137548 7.75053,13.996186 7.7166464,13.56146 7.4881355,13.151943 7.115755,12.829507 6.6503369,12.656023 6.4637333,12.593169 6.3722476,12.401313 6.1578527,12.062653 5.7874577,11.827867 5.3089741,11.716492 l -0.5386608,0.03158 -0.3265496,0.045 0.043635,-0.118071 0.3661256,-0.284073 0.5715008,-0.282792 0.6307835,-0.220379 0.5439602,-0.09682 0.6546375,0.02545 0.4902954,0.161625 0.4206985,0.351041 0.4455013,0.593681 0.6839062,0.788233 0.4806725,0.328895 -0.03734,-0.26516 0.1358054,-1.47527 0.1116125,0.0098 0.1427859,0.278814 0.166233,0.284066 0.229255,0.130167 0.260836,-0.03015 0.260971,-0.196877 0.327655,-0.32226 0.08688,-0.02627 0.03659,0.07411 -0.342292,1.457055 0.02467,0.214754 0.26104,-0.03565 1.15963,-0.791825 0.501206,-0.338816 0.520791,-0.224086 0.531498,-0.110325 0.533531,0.0025 0.526754,0.114296 0.5111,0.225157 0.486771,0.33504 0.453566,0.44397 0.211162,0.242336 -0.364926,-0.0843 -0.524789,-0.06384 -0.429779,0.07414 -0.337752,0.213195 -0.248705,0.353406 -0.133163,0.274864 -0.311593,-0.118796 -0.384375,-0.082 -0.335583,0.07624 -0.305088,0.243758 -0.292958,0.42036 -0.198422,0.346493 -0.300208,-0.167317 -0.633894,-0.189409 -0.616072,0.189206 -0.65009,0.600214 -0.735951,1.043478 -0.1225905,0.175721 -0.00786,-0.07766 6.77e-5,6.8e-5"
       style="fill:#000000;stroke-width:0.222059"
       id="path1-8-2-32" />
    <path
       d="m 54.729096,15.154056 -0.24037,-0.925022 -0.488736,-0.945284 -0.30929,-0.252094 -0.370686,-0.116492 -0.385731,0.0248 -0.354219,0.171654 -0.200658,0.114391 -0.03151,-0.139194 -0.07156,-0.430091 -0.263343,-0.388034 -0.399081,-0.288756 -0.478775,-0.132261 -0.191375,-0.04635 -0.107885,-0.183154 -0.243081,-0.318689 -0.389458,-0.201607 -0.486364,-0.06925 -0.53387,0.07841 -0.321352,0.0733 0.03321,-0.121432 0.33992,-0.3149 0.544712,-0.331531 0.609159,-0.274511 0.533464,-0.1438563 0.654359,-0.031708 0.502561,0.1182733 0.449636,0.313044 0.495581,0.552594 0.749979,0.725637 0.507508,0.285774 -0.06031,-0.260931 0.0068,-1.481491 0.112087,6.7e-5 0.166436,0.265309 0.190426,0.2685 0.239692,0.109688 0.257177,-0.05276 0.242877,-0.218868 0.298311,-0.34959 0.0843,-0.03374 0.0429,0.07064 -0.214009,1.481363 0.0433,0.211759 0.256905,-0.05823 1.08624,-0.889905 0.469762,-0.38121 0.49924,-0.268622 0.51991,-0.156231 0.531701,-0.04403 0.534683,0.06796 0.528787,0.179752 0.514082,0.291352 0.490566,0.402754 0.231493,0.222967 -0.37089,-0.05219 -0.52838,-0.01784 -0.421715,0.111308 -0.317896,0.241834 -0.216923,0.373709 -0.10863,0.285421 -0.32081,-0.09115 -0.390068,-0.04822 -0.327654,0.105235 -0.282657,0.269395 -0.255211,0.444268 -0.167453,0.362554 -0.313626,-0.140549 -0.648058,-0.133433 -0.597231,0.242132 -0.595267,0.654631 -0.64223,1.103655 -0.106801,0.18575 -0.01464,-0.07671 6.7e-5,6.8e-5"
       style="fill:#000000;stroke-width:0.222059"
       id="path1-8-2-0-7-6" />
    <path
       d="m 69.241772,28.921225 -0.542815,-0.787048 -0.782033,-0.721178 -0.376921,-0.131129 -0.388238,0.01735 -0.354015,0.155187 -0.274186,0.282521 -0.149427,0.176127 -0.07719,-0.120016 -0.214415,-0.379699 -0.380174,-0.274525 -0.473692,-0.134856 -0.495175,0.03944 -0.195711,0.02189 -0.163997,-0.135196 -0.337412,-0.216312 -0.43493,-0.05625 -0.48074,0.101244 -0.474845,0.256295 -0.276896,0.17877 -0.01037,-0.125437 0.211773,-0.41216 0.398403,-0.497885 0.478571,-0.466306 0.452075,-0.317625 0.604009,-0.253584 0.512726,-0.06072 0.529601,0.140414 0.654698,0.349746 0.952942,0.425307 0.574665,0.09501 -0.145902,-0.22458 -0.500393,-1.394445 0.10531,-0.03829 0.247215,0.192391 0.27073,0.187173 0.262733,0.02107 0.223631,-0.137499 0.153154,-0.288756 0.161286,-0.430525 0.06709,-0.06052 0.06438,0.05171 0.30563,1.465194 0.113171,0.184191 0.221599,-0.14265 0.716299,-1.207746 0.311051,-0.518893 0.377463,-0.423138 0.435065,-0.324605 0.484536,-0.223225 0.525873,-0.119067 0.558401,-0.01193 0.582798,0.09792 0.598384,0.210688 0.294109,0.130384 -0.36662,0.0778 -0.502833,0.163928 -0.35781,0.248841 -0.216177,0.33599 -0.0759,0.425374 -0.0047,0.305359 -0.332737,0.02406 -0.382884,0.0881 -0.271747,0.210959 -0.173484,0.349814 -0.0881,0.504798 -0.03321,0.397928 -0.342902,-0.0248 -0.654631,0.09623 -0.478436,0.43188 -0.335447,0.818695 -0.225665,1.256742 -0.03727,0.211095 -0.03998,-0.06709 6.77e-4,6.8e-5"
       style="fill:#000000;stroke-width:0.222059"
       id="path1-8-1-5" />
    <path
       d="m 8.93449,109.59904 0.1730773,-0.93993 -0.043439,-1.06326 -0.173755,-0.35917 -0.2867229,-0.26226 -0.3600469,-0.14028 -0.3935916,0.005 -0.2302051,0.019 0.030224,-0.1396 0.1168983,-0.41948 -0.074679,-0.46353 -0.2396247,-0.43032 -0.3780052,-0.32189 -0.1538992,-0.12266 -0.02033,-0.21211 -0.085658,-0.3917 -0.2677413,-0.34696 -0.4115364,-0.26836 -0.5169753,-0.15451 -0.3222464,-0.0698 0.081388,-0.0955 0.4412049,-0.14164 0.6337585,-0.0705 0.6681164,0.009 0.5442381,0.0949 0.6064483,0.24803 0.4055186,0.31918 0.2752025,0.47369 0.2156351,0.71088 0.3730582,0.97449 0.3391746,0.47302 0.055637,-0.26158 0.6322002,-1.33976 0.101515,0.0468 0.03876,0.31105 0.05909,0.32393 0.170909,0.20059 0.255414,0.061 0.312542,-0.0956 0.418056,-0.19111 0.09067,0.005 0.009,0.082 -0.819982,1.25234 -0.05028,0.21008 0.257515,0.0563 1.360493,-0.34765 0.586864,-0.14705 0.566059,-0.0325 0.53719,0.0779 0.500529,0.185 0.455869,0.28734 0.403283,0.38627 0.342766,0.48115 0.274389,0.57263 0.115543,0.30021 -0.314101,-0.20398 -0.471253,-0.2399 -0.429237,-0.0772 -0.390339,0.0847 -0.354557,0.24735 -0.219092,0.21279 -0.252229,-0.21821 -0.333143,-0.20873 -0.341411,-0.0434 -0.370077,0.12469 -0.419004,0.29479 -0.304952,0.25819 -0.224919,-0.26022 -0.530888,-0.39441 -0.643653,-0.0332 -0.81612,0.34222 -1.0484259,0.7285 -0.1753136,0.12333 0.01911,-0.0759 h 6.78e-5"
       style="fill:#000000;stroke-width:0.222059"
       id="path1-8-2-00-4" />
    <path
       d="m 48.487538,110.41089 -0.542273,-0.78677 -0.782507,-0.72104 -0.376854,-0.1308 -0.38817,0.017 -0.353948,0.15518 -0.274186,0.28259 -0.149426,0.1762 -0.07719,-0.11995 -0.214415,-0.3795 -0.380174,-0.27513 -0.473693,-0.13418 -0.495174,0.0393 -0.195712,0.0217 -0.163996,-0.13553 -0.337413,-0.21618 -0.43493,-0.0563 -0.48074,0.10165 -0.474844,0.25616 -0.276897,0.17823 -0.01037,-0.12537 0.211772,-0.41202 0.398403,-0.49741 0.478572,-0.46624 0.452075,-0.31783 0.604008,-0.25413 0.512727,-0.0603 0.5296,0.14028 0.654699,0.34968 0.953009,0.42557 0.574598,0.0949 -0.145903,-0.22431 -0.500393,-1.39465 0.105311,-0.0386 0.247214,0.19246 0.27073,0.18704 0.262733,0.021 0.2237,-0.13689 0.153289,-0.28869 0.160744,-0.431 0.06763,-0.0603 0.06452,0.0515 0.305562,1.46513 0.113103,0.18432 0.221531,-0.14231 0.716367,-1.20761 0.311051,-0.51909 0.37726,-0.42287 0.435133,-0.32461 0.484603,-0.22363 0.525669,-0.11927 0.558402,-0.0115 0.58273,0.0976 0.598722,0.21075 0.293771,0.13011 -0.366417,0.0779 -0.502561,0.16399 -0.358217,0.24939 -0.216042,0.33544 -0.07603,0.42558 -0.0047,0.30563 -0.332601,0.0237 -0.38302,0.0881 -0.271882,0.21075 -0.173551,0.34968 -0.08783,0.50487 -0.03334,0.39847 -0.342834,-0.0251 -0.654563,0.0962 -0.478368,0.43168 -0.335516,0.81931 -0.226003,1.2564 -0.0368,0.21075 -0.03998,-0.0671 h 2.71e-4"
       style="fill:#000000;stroke-width:0.222059"
       id="path1-8-0-7-5" />
    <path
       d="m 28.027277,110.05105 0.173077,-0.93993 -0.04337,-1.06327 -0.173754,-0.35916 -0.286723,-0.26226 -0.360047,-0.14096 -0.39366,0.006 -0.230205,0.019 0.03029,-0.1396 0.116899,-0.41948 -0.07468,-0.46353 -0.239692,-0.43032 -0.378006,-0.32189 -0.153831,-0.12334 -0.0204,-0.21143 -0.08559,-0.3917 -0.267748,-0.34697 -0.41155,-0.26835 -0.516995,-0.15451 -0.322233,-0.0691 0.08139,-0.0962 0.441232,-0.14163 0.633758,-0.0705 0.668049,0.009 0.544306,0.0949 0.606448,0.24803 0.405451,0.31918 0.27527,0.47369 0.215568,0.7102 0.373058,0.97449 0.339175,0.47369 0.05564,-0.26158 0.6322,-1.33975 0.101583,0.0468 0.03869,0.31105 0.05909,0.32392 0.170909,0.2006 0.255414,0.061 0.312543,-0.0956 0.418123,-0.1911 0.09067,0.005 0.009,0.082 -0.819982,1.25234 -0.05028,0.21008 0.257515,0.0556 1.360493,-0.34764 0.586864,-0.14706 0.566059,-0.0319 0.53719,0.0779 0.500461,0.185 0.455869,0.28733 0.403283,0.38628 0.342834,0.48114 0.274389,0.57264 0.115543,0.3002 -0.314101,-0.20465 -0.47132,-0.23922 -0.429238,-0.0773 -0.390271,0.0847 -0.354557,0.24735 -0.219092,0.21279 -0.252229,-0.21821 -0.333143,-0.20872 -0.341479,-0.0434 -0.370009,0.12469 -0.419072,0.29479 -0.304952,0.25819 -0.224852,-0.26023 -0.530887,-0.3944 -0.643653,-0.0332 -0.81612,0.34155 -1.048493,0.72917 -0.175314,0.12334 0.01918,-0.0759 v 0"
       style="fill:#000000;stroke-width:0.222059"
       id="path1-8-2-0-7-7" />
    <path
       d="m 34.263482,103.30144 0.173078,-0.93993 -0.04344,-1.06326 -0.173755,-0.35917 -0.286723,-0.26226 -0.360047,-0.14096 -0.393592,0.006 -0.230205,0.019 0.03022,-0.1396 0.116899,-0.42016 -0.07461,-0.462848 -0.239692,-0.430322 -0.378005,-0.321894 -0.1539,-0.123336 -0.02033,-0.211433 -0.08566,-0.391695 -0.267748,-0.346967 -0.41155,-0.268358 -0.516927,-0.154509 -0.322301,-0.0698 0.08146,-0.09555 0.441164,-0.141634 0.633759,-0.07048 0.668116,0.0088 0.544238,0.09487 0.606449,0.248028 0.405518,0.319183 0.27527,0.473693 0.215568,0.7102 0.373058,0.974491 0.339175,0.473701 0.05564,-0.261589 0.6322,-1.340435 0.101515,0.04744 0.03876,0.311051 0.05909,0.323927 0.170909,0.200591 0.255414,0.06099 0.312543,-0.09555 0.418123,-0.191103 0.09067,0.0054 0.009,0.082 -0.82005,1.252338 -0.05028,0.21008 0.257515,0.0556 1.360561,-0.34765 0.586864,-0.14705 0.565991,-0.0319 0.53719,0.0779 0.500529,0.185 0.455869,0.28733 0.403283,0.38628 0.342766,0.48114 0.274389,0.57264 0.115543,0.29953 -0.314101,-0.20398 -0.471252,-0.23922 -0.429238,-0.0773 -0.390338,0.0847 -0.354558,0.24735 -0.219091,0.21212 -0.25223,-0.21754 -0.333143,-0.20872 -0.341411,-0.0434 -0.370009,0.12469 -0.419072,0.29479 -0.304952,0.25819 -0.224919,-0.26023 -0.530888,-0.3944 -0.643653,-0.0332 -0.81612,0.34155 -1.048425,0.72918 -0.175314,0.12333 0.01911,-0.0759 h 6.8e-5"
       style="fill:#000000;stroke-width:0.222059"
       id="path1-8-2-3-4-3" />
    <path
       d="m 26.531453,102.27884 -0.778713,-0.55434 -0.982014,-0.40931 -0.399013,0.005 -0.358827,0.14909 -0.279539,0.267 -0.160947,0.35916 -0.08024,0.21686 -0.113577,-0.0867 -0.331314,-0.28327 -0.451126,-0.12808 -0.49138,0.0352 -0.451736,0.20669 -0.176398,0.0874 -0.200387,-0.0712 -0.391084,-0.0881 -0.427882,0.0962 -0.417107,0.25954 -0.358556,0.40322 -0.1991,0.26226 -0.05259,-0.11385 0.05801,-0.46014 0.204183,-0.60381 0.290179,-0.60177 0.316134,-0.45336 0.480875,-0.44455 0.46102,-0.23244 0.545662,-0.0495 0.734867,0.10503 1.040971,0.0739 0.572429,-0.10775 -0.213941,-0.160607 -0.947114,-1.139844 0.08593,-0.07183 0.29804,0.09623 0.318438,0.08335 0.254127,-0.0698 0.163115,-0.206012 0.04534,-0.323927 0.0038,-0.459462 0.0429,-0.07997 0.07827,0.02643 0.788268,1.272668 0.169282,0.134179 0.159389,-0.209401 0.26009,-1.380417 0.114798,-0.59364 0.209807,-0.526551 0.297836,-0.45404 0.379022,-0.37543 0.453227,-0.291399 0.520655,-0.202624 0.581103,-0.107072 0.63464,-0.0068 0.320674,0.02169 -0.317693,0.198558 -0.416225,0.32596 -0.251484,0.356455 -0.08803,0.389661 0.074,0.425578 0.100227,0.288688 -0.304342,0.136212 -0.329823,0.213467 -0.18331,0.291398 -0.04337,0.388306 0.09006,0.504188 0.104768,0.385595 -0.330636,0.09352 -0.582188,0.314439 -0.301835,0.569922 -0.03524,0.883682 0.217465,1.25844 0.03754,0.21076 -0.06052,-0.0495 h 1.36e-4"
       style="fill:#000000;stroke-width:0.222059"
       id="path1-8-08-6-8" />
    <path
       d="M 10.77918,102.02539 10.620334,101.08275 10.215899,100.09809 9.9297863,99.820243 9.5706203,99.671833 9.184212,99.663023 8.8163719,99.803301 8.606497,99.899531 8.5872511,99.758575 8.5533675,99.32351 8.3248566,98.914196 7.9524761,98.591625 7.4870513,98.418141 7.3004883,98.355117 7.2090026,98.163336 6.9945873,97.8245 6.6241856,97.590026 6.145702,97.478888 l -0.5386608,0.03117 -0.3265496,0.0454 0.043635,-0.118593 0.3661257,-0.283944 0.5715075,-0.282589 0.63077,-0.220243 0.543967,-0.09691 0.6546307,0.02507 0.4902954,0.161964 0.4206985,0.351034 0.4455013,0.59364 0.6839063,0.788132 0.480673,0.328671 -0.03734,-0.26497 0.135805,-1.475291 0.111613,0.01017 0.142785,0.278523 0.166301,0.283945 0.229256,0.130113 0.260768,-0.02982 0.260971,-0.197202 0.327655,-0.321894 0.08695,-0.02643 0.03659,0.07387 -0.34236,1.456994 0.02467,0.214822 0.261039,-0.03524 1.159631,-0.792199 0.501206,-0.338835 0.520791,-0.223632 0.531566,-0.11046 0.53353,0.0027 0.526687,0.113849 0.5111,0.224987 0.486771,0.335448 0.453566,0.443874 0.211162,0.242607 -0.364926,-0.08471 -0.524789,-0.0637 -0.429779,0.07387 -0.337752,0.213467 -0.248705,0.353066 -0.133095,0.275135 -0.311661,-0.118592 -0.384375,-0.082 -0.335583,0.0759 -0.305088,0.243961 -0.292957,0.420154 -0.198423,0.34697 -0.300208,-0.16739 -0.633894,-0.18975 -0.616071,0.18907 -0.650091,0.60042 -0.735951,1.04361 -0.122591,0.17552 -0.0079,-0.0772 h 6.8e-5"
       style="fill:#000000;stroke-width:0.222059"
       id="path1-8-2-32-1-8" />
    <path
       d="m 52.541573,101.89256 -0.240371,-0.92502 -0.488669,-0.94535 -0.309289,-0.252094 -0.370686,-0.11656 -0.385731,0.02507 -0.354219,0.171451 -0.200658,0.114526 -0.03151,-0.1396 -0.07156,-0.430321 -0.263343,-0.387629 -0.399081,-0.289365 -0.478775,-0.132146 -0.191375,-0.04608 -0.107885,-0.182971 -0.243081,-0.318506 -0.389458,-0.201946 -0.486365,-0.06912 -0.533869,0.07861 -0.32142,0.07319 0.03321,-0.121303 0.339988,-0.315118 0.544645,-0.331381 0.609159,-0.274457 0.533463,-0.144344 0.654359,-0.03185 0.502629,0.118593 0.449635,0.313084 0.495514,0.55298 0.750047,0.725109 0.507508,0.285977 -0.06031,-0.260903 0.0068,-1.481391 h 0.112087 l 0.166436,0.26497 0.190426,0.269036 0.239692,0.109782 0.257177,-0.05286 0.242877,-0.218888 0.298311,-0.349678 0.0843,-0.03388 0.0429,0.07048 -0.214009,1.48139 0.0433,0.211434 0.256905,-0.05828 1.08624,-0.889105 0.469829,-0.381529 0.499241,-0.268358 0.51991,-0.156543 0.531701,-0.04405 0.534683,0.06777 0.528787,0.180261 0.514082,0.291398 0.490566,0.402537 0.231425,0.222954 -0.37089,-0.05218 -0.528313,-0.01762 -0.421715,0.111138 -0.317895,0.241929 -0.216991,0.373397 -0.108631,0.2853 -0.320674,-0.09149 -0.390068,-0.04811 -0.327654,0.10504 -0.282657,0.269713 -0.255211,0.443875 -0.167452,0.362552 -0.313762,-0.140276 -0.64799,-0.133501 -0.597232,0.242607 -0.595334,0.65463 -0.642162,1.10325 -0.106801,0.18568 -0.0147,-0.0766 v 6.7e-4"
       style="fill:#000000;stroke-width:0.222059"
       id="path1-8-0-7-0-8" />
    <path
       d="m 63.02461,109.03725 0.173077,-0.93993 -0.04337,-1.06326 -0.173755,-0.35917 -0.286723,-0.26226 -0.360047,-0.14095 -0.393659,0.006 -0.230137,0.019 0.03022,-0.1396 0.116898,-0.42016 -0.07468,-0.46285 -0.239693,-0.43032 -0.378005,-0.32189 -0.153831,-0.12334 -0.02033,-0.21143 -0.08566,-0.3917 -0.267748,-0.34696 -0.41155,-0.26836 -0.516996,-0.15451 -0.322233,-0.0698 0.08139,-0.0956 0.441232,-0.14164 0.63369,-0.0705 0.668117,0.009 0.544306,0.0949 0.606448,0.24803 0.405519,0.31918 0.275202,0.47369 0.215567,0.7102 0.373126,0.9745 0.339175,0.47369 0.05564,-0.26158 0.632132,-1.34044 0.101583,0.0474 0.03876,0.31105 0.05909,0.32393 0.170841,0.20059 0.255414,0.061 0.31261,-0.0956 0.418056,-0.19111 0.09067,0.005 0.009,0.082 -0.819982,1.25166 -0.05028,0.21076 0.257516,0.0556 1.360493,-0.34765 0.586864,-0.14705 0.565923,-0.0319 0.537394,0.0779 0.500121,0.185 0.456073,0.28734 0.403215,0.38627 0.342902,0.48115 0.274457,0.57263 0.115882,0.29953 -0.31444,-0.20398 -0.470982,-0.23922 -0.429644,-0.0773 -0.390338,0.0847 -0.354423,0.24667 -0.218888,0.21279 -0.252771,-0.21821 -0.332737,-0.20805 -0.341546,-0.0434 -0.370009,0.12469 -0.419072,0.29479 -0.304952,0.25819 -0.224852,-0.26022 -0.530888,-0.39509 -0.643652,-0.0325 -0.81612,0.34154 -1.048494,0.72918 -0.175245,0.12333 0.01911,-0.0759 v 0"
       style="fill:#000000;stroke-width:0.222059"
       id="path1-8-2-3-4-4-3" />
    <path
       d="m 71.044379,95.819948 -0.778645,-0.553658 -0.981946,-0.409991 -0.399149,0.0054 -0.358488,0.149088 -0.279878,0.267003 -0.161286,0.359166 -0.07997,0.216177 -0.113849,-0.08607 -0.331178,-0.283266 -0.451126,-0.12808 -0.491312,0.03524 -0.451736,0.20669 -0.176398,0.08742 -0.200387,-0.07116 -0.391085,-0.0881 -0.427881,0.09623 -0.417107,0.259548 -0.358556,0.403215 -0.1991,0.262258 -0.05265,-0.113848 0.05801,-0.460139 0.204183,-0.603806 0.290179,-0.601772 0.316201,-0.453362 0.480876,-0.444553 0.46102,-0.232441 0.545661,-0.04947 0.7348,0.105039 1.040564,0.07387 0.572633,-0.10775 -0.213467,-0.161286 -0.947317,-1.139166 0.08593,-0.07183 0.298243,0.09623 0.318506,0.08335 0.253449,-0.0698 0.163319,-0.206012 0.0454,-0.323927 0.0041,-0.459462 0.04269,-0.07997 0.07861,0.02643 0.788132,1.272668 0.169418,0.134179 0.159253,-0.209401 0.260226,-1.380417 0.114526,-0.59364 0.210078,-0.526551 0.297498,-0.45404 0.379496,-0.37543 0.453363,-0.291399 0.520451,-0.202624 0.580765,-0.107072 0.634978,-0.0068 0.320539,0.02169 -0.317828,0.198558 -0.41609,0.32596 -0.251417,0.356455 -0.0881,0.389661 0.07387,0.425578 0.100296,0.288688 -0.304275,0.136212 -0.330026,0.213467 -0.183649,0.291398 -0.04337,0.388306 0.09013,0.504188 0.105039,0.385595 -0.330703,0.09352 -0.58212,0.314439 -0.301564,0.569922 -0.03592,0.883684 0.217533,1.258436 0.03795,0.210756 -0.06031,-0.04947 v 0"
       style="fill:#000000;stroke-width:0.222059"
       id="path1-8-08-6-5-0" />
    <path
       d="m 10.774775,92.179496 0.173077,-0.939253 -0.04337,-1.063944 -0.173755,-0.359166 -0.286723,-0.262259 -0.360046,-0.140278 -0.3936599,0.0061 -0.230205,0.01898 0.030292,-0.1396 L 9.6072824,88.879913 9.532603,88.417063 9.2929105,87.986064 8.9149053,87.66417 8.7610738,87.541512 8.7406759,87.330078 8.655086,86.938384 8.3872702,86.590738 7.975788,86.322381 l -0.5169956,-0.15451 -0.3222329,-0.06912 0.081388,-0.09623 0.4412319,-0.141634 0.6336907,-0.07048 0.6681165,0.0088 0.5443058,0.09487 0.6064486,0.248028 0.405451,0.319861 0.27527,0.473692 0.215568,0.7102 0.373058,0.974492 0.339174,0.473692 0.05564,-0.262259 0.6322,-1.339756 0.101515,0.04744 0.03876,0.311051 0.05909,0.323927 0.170909,0.200591 0.255414,0.06099 0.312542,-0.09623 0.418124,-0.190426 0.09067,0.0047 0.009,0.082 -0.819982,1.252337 -0.05028,0.210078 0.257516,0.05625 1.360493,-0.347645 0.586864,-0.147055 0.566059,-0.03253 0.53719,0.07793 0.50046,0.185004 0.45587,0.287333 0.403283,0.386273 0.342834,0.481147 0.274389,0.572632 0.115543,0.300209 -0.314101,-0.20398 -0.471321,-0.239218 -0.429237,-0.07793 -0.390271,0.08539 -0.354558,0.246672 -0.219091,0.212789 -0.252229,-0.21821 -0.333144,-0.208723 -0.341478,-0.04269 -0.370009,0.124691 -0.419072,0.294787 -0.304952,0.257516 -0.224852,-0.259549 -0.530888,-0.395082 -0.643652,-0.03321 -0.81612,0.342224 -1.048493,0.728497 -0.175314,0.123336 0.01918,-0.0759 v 0"
       style="fill:#000000;stroke-width:0.222059"
       id="path1-8-2-3-4-3-2" />
    <path
       style="fill:#ff0000;stroke:#000000;stroke-width:0.0605536"
       d="m 16.744113,57.495858 -0.659171,-0.152206 -0.515641,-0.273576 -0.431405,-0.511303 -0.553455,-0.851088 -0.477352,-0.861659 -0.203165,-0.543018 0.124759,-0.338362 0.292483,-0.437369 0.337413,-0.377666 0.259751,-0.15905 0.172535,0.173078 0.346562,0.401588 0.373532,0.232102 0.113578,-0.0553 0.07258,-0.169418 -0.04811,-0.278794 -0.284554,-0.355913 -0.225055,-0.296684 0.30834,-0.156814 0.657206,-0.06329 0.581443,0.04323 0.510151,0.133502 0.456547,0.23034 0.420292,0.333686 0.453091,0.513539 0.282928,0.531159 0.123675,0.578867 -0.02446,0.656461 -0.122929,0.466238 -0.230138,0.450516 -0.316608,0.402537 -0.382342,0.322029 -0.72355,0.336125 -0.688921,0.07651 v 0"
       id="path63" />
    <path
       style="fill:#ff0000;stroke:#000000;stroke-width:0.0605536"
       d="m 9.5500191,59.155814 0.3893901,-2.006653 0.6561898,-2.494645 1.032297,-2.97918 0.131604,-0.317896 0.03124,0.148343 0.101515,0.592691 0.509203,2.099088 0.790436,1.744733 1.426838,2.345896 0.28103,0.458038 -0.56755,-0.202014 -0.855289,-0.277913 -0.880906,-0.06194 -0.862472,0.0454 -0.920888,0.386273 -1.0805475,0.69746 -0.2083163,0.160066 0.026226,-0.337752"
       id="path64" />
    <path
       style="fill:#ff0000;stroke:#000000;stroke-width:0.0605536"
       d="m 8.7987524,66.847454 0.032122,-2.064391 0.1588462,-2.383032 0.2123823,-0.896966 0.4059931,-0.847293 0.558469,-0.73053 0.670149,-0.546881 0.641891,-0.302173 0.716231,-0.100092 0.811579,0.07 0.484603,0.23854 0.471456,0.444824 0.360996,0.519503 0.08918,0.528719 -0.04527,0.439674 -0.122455,0.227765 -0.24159,-0.103277 -0.532989,-0.465154 -0.412431,-0.390881 -0.360047,0.04405 -0.483315,0.10775 -0.257109,0.228578 -0.251483,0.428357 -0.150037,0.499037 0.118118,0.411957 0.201607,0.241318 0.285029,0.165827 0.87772,0.127131 0.399962,0.04954 -0.150375,0.254262 -0.89229,0.85495 -0.572226,0.366621 -0.487788,0.215906 -0.653614,0.451736 -0.8800922,0.86437 -0.7991103,1.160987 -0.1745682,0.288485 -0.029547,-0.399217"
       id="path65" />
    <path
       style="fill:#ff0000;stroke:#000000;stroke-width:0.0605536"
       d="M 7.6128949,61.541286 7.3114666,61.31081 7.0908844,60.991897 6.8990356,60.102521 l 0.016061,-0.39271 0.1893415,0.04703 0.4896177,0.06546 0.6073293,-0.06655 0.2640886,-0.04059 0.054959,0.101651 -0.4423163,1.714102 -0.1401425,0.140346 -0.325079,-0.129842 v -1.35e-4"
       id="path66" />
    <path
       style="fill:#ff0000;stroke:#000000;stroke-width:0.0605536"
       d="M 7.7215256,68.125679 7.0441251,65.41628 6.3408104,62.060924 5.997563,58.766966 5.905488,54.642657 l 0.052187,-1.658398 0.1099726,-0.705388 0.045736,-0.116018 0.044882,0.10592 0.4022862,0.753097 0.5161011,0.43459 0.663305,0.290789 0.6010947,0.13235 0.6570704,-0.114798 0.6880399,-0.244978 0.3292811,-0.149088 -0.2733054,1.081157 -0.6580191,2.493493 -0.3517793,1.678999 -0.045811,0.178905 -0.061329,0.04717 -0.1374318,-0.140278 -0.2919409,-0.236778 -0.4010461,-0.05672 -0.4036212,0.08634 -0.4021981,0.331043 -0.4735433,0.602246 -0.242044,0.356727 1.762e-4,0.492328 0.043344,0.720636 0.2418542,0.554335 0.4491878,0.610447 0.3548289,0.290789 0.3654683,0.0574 0.1351277,-0.01294 v 0.317896 l -0.056721,1.285136 -0.00698,2.289039 0.035578,1.682252 -0.014299,0.360318 -0.099414,-0.314981 m -1.4490787,-8.618763 -0.0097,-0.13052 -0.036513,0.02758 0.02712,0.283064 0.019097,-0.180125 v 0"
       id="path67" />
    <path
       style="fill:#ff0000;stroke:#000000;stroke-width:0.0605536"
       d="m 18.362596,66.75563 -0.74754,-0.826488 -0.69319,-0.576428 -0.826962,-0.459055 -0.967309,-0.408703 -0.915399,-0.287333 -0.671233,-0.09487 -0.272966,-0.01403 0.395421,-0.368247 0.694003,-0.665676 0.392643,-0.566669 0.325621,-0.926784 -0.08803,-0.91384 -0.235423,-0.674758 -0.322301,-0.493006 -0.171857,-0.216584 0.290043,0.155052 1.126426,0.789013 0.746726,0.824252 1.129137,2.161026 0.903268,2.323194 0.409924,1.71207 -0.103549,-0.01077 -0.397454,-0.461359 v 0"
       id="path68" />
    <path
       style="fill:#ff0000;stroke:#000000;stroke-width:0.0605536"
       d="m 19.830162,65.938765 -0.162506,-0.571413 -0.832452,-2.395027 -0.750724,-1.557967 -0.966631,-1.669444 -0.614309,-0.973611 0.417581,-0.07678 0.749233,-0.101176 0.66012,-0.196051 0.579681,-0.294448 0.508118,-0.396235 0.6158,-0.751334 0.358217,-0.860575 0.150104,-0.386612 0.120287,-0.04527 0.17301,1.285204 0.400571,3.009743 0.278185,2.162517 -0.033,0.33206 -0.128893,0.280285 -0.452143,1.023894 -1.070246,2.182238 v 0"
       id="path69" />
    <path
       style="fill:#ff0000;stroke:#000000;stroke-width:0.0605536"
       d="m 22.535562,61.052075 -0.256295,-1.81223 -0.46346,-3.889631 -0.216651,-3.039019 -0.214551,-4.133051 -0.05923,-0.720636 0.108292,-0.163861 0.561519,-0.678213 0.759195,-0.882803 0.34236,-0.391017 0.366078,0.776476 1.024165,2.042028 1.300655,1.904393 1.093423,1.247932 1.127307,1.066655 1.19792,0.916754 1.305196,0.798094 0.520451,0.284419 -0.202556,0.16752 -2.152488,1.366525 -1.739515,1.071263 -1.359342,0.967648 -1.373775,1.170948 -1.317462,1.539535 -0.351237,0.390271 v 0"
       id="path70" />
    <path
       style="fill:#ff0000;stroke:#000000;stroke-width:0.0605536"
       d="m 20.342752,53.826605 -0.411685,-0.699222 -0.522553,-0.585034 -0.724295,-0.621492 -0.647244,-0.28076 -0.773766,-0.173145 -0.752283,-0.06302 -0.890189,0.137567 -0.92082,0.427679 -0.956263,0.693461 -0.366485,0.27954 -0.414125,-1.796711 -0.05726,-1.533232 0.0799,-1.518865 0.286587,-1.249288 0.461088,-1.421077 0.593233,-1.476105 0.682822,-1.414436 1.435512,-2.425996 1.743717,-2.318518 1.937598,-2.225812 1.111585,-1.068079 0.573852,-0.401588 -0.204995,0.334702 -0.506695,0.699967 -0.879754,1.351684 -0.917025,1.659889 -0.90171,1.866239 -0.83401,1.970805 -0.860711,2.436162 -0.557791,2.028271 -0.113375,1.141673 0.02535,1.020167 0.235423,0.633352 0.465832,0.59879 0.398945,0.342563 0.391559,0.208588 0.418462,0.08695 0.47952,-0.02216 0.841804,-0.247079 0.782372,-0.577308 0.375294,-0.318845 0.08295,1.880945 0.09481,2.469232 -0.0208,0.604077 -0.26436,-0.434523 v 0"
       id="path71" />
    <path
       style="fill:#ff0000;stroke:#000000;stroke-width:0.0605536"
       d="M 8.0474179,53.077574 7.2014805,52.438327 6.8181216,51.936714 6.630122,51.241762 6.4977456,50.755939 l -0.039535,-0.35781 0.1302145,-0.682009 0.1991338,-0.64677 0.2323736,-0.445298 0.305901,-0.299598 0.419682,-0.20974 0.5891677,-0.138313 0.564636,0.0305 0.5281772,0.196931 0.4798592,0.36086 0.3237234,0.397658 0.218414,0.472405 0.124352,0.581916 0.04161,0.726058 0.0033,0.65707 -0.143395,0.296752 -0.5722935,0.723347 -0.6697428,0.546949 -0.6690651,0.136686 -0.5167924,-0.02596 v 0"
       id="path72" />
    <path
       style="fill:#ff0000;stroke:#000000;stroke-width:0.0605536"
       d="M 11.28906,48.932528 10.969334,48.493126 10.255136,47.77188 9.3845995,47.367242 8.604735,47.294054 l -0.9004222,0.0269 -0.2861807,0.03294 0.1080886,-0.287265 0.4910408,-1.010408 0.7738332,-1.25105 0.9555169,-1.340231 1.0360244,-1.277749 2.824603,-2.830364 2.481294,-2.073471 2.233199,-1.63407 1.3773,-0.74449 -0.865522,0.93024 -1.241562,1.326339 -2.234554,3.005067 -1.187281,1.938276 -1.006613,1.982596 -0.834892,2.046229 -0.672047,2.12938 -0.231492,0.81795 -0.136009,-0.148343 v 0"
       id="path73" />
    <path
       style="fill:#ff0000;stroke:#000000;stroke-width:0.0605536"
       d="m 6.2252606,45.892087 -1.489617,-0.790707 -0.1221232,-0.124827 0.0111,-0.115611 0.7637765,-1.176777 1.2305974,-1.610215 1.9823521,-2.023799 1.7318576,-1.318207 2.468622,-1.625666 2.23713,-1.249084 3.01923,-1.380485 1.009527,-0.377802 0.600756,-0.131265 -0.48833,0.296414 -1.359612,0.81368 -2.326921,1.712476 -2.176275,1.747308 -2.149439,2.049618 -2.0001477,2.151065 -1.544007,2.023324 -0.6507002,0.82371 -0.4575707,0.408026 -0.2902061,-0.101176 v 0"
       id="path74" />
    <path
       style="fill:#ff0000;stroke:#000000;stroke-width:0.0302768"
       d="m 9.9600782,38.124141 1.4784088,-1.279851 2.630111,-1.666869 1.510462,-0.82886 1.313395,-0.561247 2.370021,-0.804329 1.641524,-0.435133 0.08972,10e-4 -0.127199,0.06587 -1.685031,0.690954 -1.314073,0.520046 -4.275701,2.036132 -1.76486,1.100809 -1.8762014,1.200834 0.00942,-0.0393 v -6.8e-5"
       id="path75" />
    <path
       style="fill:#ff0000;stroke:#000000;stroke-width:0.0302768"
       d="m 17.941626,49.37803 -0.470033,-0.255889 -0.323452,-0.427137 -0.111409,-0.394608 -0.02663,-0.694478 0.181006,-2.04467 0.351847,-1.410235 0.531363,-1.580059 0.679772,-1.666733 0.797281,-1.670393 1.595984,-2.808339 0.151527,-0.137364 0.09528,0.02257 -0.140956,0.718874 -0.264969,1.194802 -0.221057,1.62133 -0.292483,4.358377 -0.08505,3.158085 -6.8e-5,0.201336 -0.169892,0.316066 -0.559757,0.842143 -0.482027,0.430592 -0.505069,0.23278 -0.731208,-0.007 v 0"
       id="path76" />
    <path
       style="fill:#ff0000;stroke:#000000;stroke-width:0.0302768"
       d="m 21.418556,45.943929 -0.06851,-1.379536 0.136687,-3.270782 0.215228,-1.695535 0.16298,0.545052 0.3818,1.824902 0.199778,0.859219 0.137635,0.79762 -0.02277,0.561654 -0.375701,0.967376 -0.571141,0.747811 -0.14448,0.103955 -0.0515,-0.06174 v 0"
       id="path77" />
    <path
       style="fill:#ff0000;stroke:#000000;stroke-width:0.0302768"
       d="m 31.972749,50.582862 -0.818153,-0.168537 -1.722777,-0.79335 -1.761675,-1.107316 -1.46743,-1.313124 -1.42677,-1.767164 -0.547287,-0.8847 -0.223361,-0.513879 -0.0068,-0.191035 1.117684,0.839838 2.257934,1.72542 1.673781,1.091187 2.114267,0.965004 2.675786,0.855018 0.873451,0.259548 -0.332194,0.382004 -0.562874,0.421105 -0.593031,0.171383 -1.250507,0.0286 v 0"
       id="path78" />
    <path
       style="fill:#ff0000;stroke:#000000;stroke-width:0.0302768"
       d="m 31.145583,53.871534 -0.529871,-0.300005 -1.189382,-0.836653 -1.407524,-1.323425 -1.932787,-2.132768 -0.972188,-1.536078 -0.627388,-1.262164 0.03158,-0.05333 0.220446,0.217871 1.291168,1.345991 0.875687,0.844244 1.468447,1.189042 1.330743,0.848174 1.715933,0.647447 0.892019,0.198626 0.762312,0.07366 0.349815,0.05631 -0.305427,0.489347 -0.976322,1.117887 -0.670556,0.561315 -0.326705,-0.145496 v 0"
       id="path79" />
    <path
       style="fill:#ff0000;stroke:#000000;stroke-width:0.085636"
       d="m 38.256188,47.883289 -0.993399,-0.577444 -1.086308,-0.826217 -0.423341,-0.484535 -0.227427,-0.505679 -0.03497,-0.540578 0.154035,-0.589371 0.125573,-0.464883 -0.482909,-0.140617 -0.710064,-0.187986 -0.665474,-0.538681 -0.55237,-0.862744 -0.126115,-0.458038 -0.01342,-1.236005 0.04432,-1.823276 0.03714,-0.444349 0.629489,0.472337 1.200427,1.040633 0.692445,0.932273 0.235288,0.477351 -0.01355,0.916416 0.005,0.771122 0.08518,0.145361 0.703017,-0.346968 1.04192,-0.52811 0.862472,-0.241251 0.790911,0.03192 0.827437,0.291466 0.84099,0.514082 0.598046,0.403418 0.09399,0.0079 0.03619,-0.0862 0.04642,-1.186671 0.01687,-1.050526 0.201878,-0.409924 0.569515,-0.781965 1.101556,-0.92326 0.760686,-0.477352 0.123404,2.835107 5.42e-4,0.839296 -0.258532,0.539563 -0.297294,0.532649 -0.330568,0.343241 -0.455396,0.219362 -0.671776,0.161083 -0.558401,0.152612 0.08823,0.52323 0.140278,0.792266 -0.105649,0.590862 -0.422189,0.53658 -0.681399,0.639586 -0.748556,0.578867 -0.623255,0.354152 -0.817814,0.160608 -0.753164,-0.09067 h 6.8e-5"
       id="path80" />
    <path
       style="fill:#ff0000;stroke:#000000;stroke-width:0.085636"
       d="M 38.679529,60.838066 36.45697,56.787081 35.859873,55.47172 35.451508,54.318594 35.308452,53.66044 l -0.02385,-1.290152 0.07359,-1.634679 0.425849,-1.152923 0.477487,-0.826285 0.450245,-0.493683 0.199574,-0.04473 0.474235,0.184801 0.95572,0.367502 0.685262,0.08471 0.460342,-0.04202 0.498631,-0.18392 0.814087,-0.397861 0.304749,-0.174365 0.29045,0.336396 0.786438,1.24922 0.485212,1.436867 0.06099,1.427244 -0.134518,1.482339 -0.584695,1.792035 -1.004987,2.057072 -2.046907,3.40469 -0.276829,-0.404638 v 0"
       id="path81" />
    <path
       style="fill:#ff0000;stroke:#000000;stroke-width:0.0214089"
       d="m 34.557117,63.877288 -0.0496,-0.20669 -0.510423,-3.273628 -0.277777,-1.394852 -0.333415,-1.446287 -0.154441,-0.974152 -6.8e-5,-1.431243 0.222141,-1.054931 0.418598,-1.073296 0.366959,-0.699086 0.03443,-0.04276 0.02216,0.05245 0.086,0.502087 0.536513,2.682699 0.177617,0.94691 0.138584,1.436054 0.08532,1.677373 -0.04744,1.086646 -0.118592,0.64555 -0.203641,1.101555 -0.327451,1.427854 -0.06546,0.03775 v 0"
       id="path82" />
    <path
       style="fill:#ff0000;stroke:#000000;stroke-width:0.0214089"
       d="m 33.500492,66.399513 -0.198965,-0.427678 -0.940404,-2.237875 -1.176574,-2.326379 -0.78183,-1.112533 -1.041513,-1.15909 -0.837467,-0.758721 -0.737035,-0.438589 -0.271611,-0.125776 0.08688,-0.08844 0.551422,-0.39 2.057614,-1.021183 0.92265,-0.382614 0.466645,-0.192933 0.479994,1.017389 0.385189,1.073025 0.437844,1.608589 0.525805,2.350504 0.28347,1.80098 0.05049,1.405694 -0.05848,1.179555 -0.09277,0.228579 -0.111341,-0.0025 v 0"
       id="path83" />
    <path
       style="fill:#ff0000;stroke:#000000;stroke-width:0.0214089"
       d="m 31.165778,62.242066 -0.65192,-0.512184 -0.98913,-0.622035 -1.004513,-0.605838 -1.242781,-0.538072 -1.211,-0.26402 -0.427136,-0.04669 -0.415887,-0.09 1.390311,-1.074516 0.425646,-0.161015 0.705185,0.169215 0.718535,0.380784 1.120394,1.091051 0.898118,1.304789 0.227224,0.351305 0.01511,-0.0412 0.01538,-0.0637 0.228714,0.216313 0.343783,0.525534 0.08959,0.201946 -0.235559,-0.221666 h -6.7e-5"
       id="path84" />
    <path
       style="fill:#ff0000;stroke:#000000;stroke-width:0.085636"
       d="m 38.908514,89.653136 -0.29621,-1.348566 -0.447128,-1.831069 -0.484806,-1.526116 -0.647922,-1.562033 -0.936339,-1.940174 -1.376622,-2.611746 -1.366186,-2.285786 -1.44588,-2.100105 -1.615636,-2.054429 -1.41525,-1.593274 -1.642269,-1.5354 -1.248271,-1.130492 0.192255,-0.150307 0.565992,-0.263818 0.432218,-0.301564 0.332873,-0.369466 0.267951,-0.467662 0.172332,-0.544305 -0.01457,-0.51293 -0.204453,-0.495446 -0.397455,-0.491989 -0.541866,-0.399826 -0.663847,-0.104226 -0.355303,0.02412 -0.197338,0.117372 -0.112358,0.189884 0.244097,0.05747 0.486094,0.123946 0.395557,0.324266 0.25372,0.462375 0.06045,0.538071 -0.232102,0.595673 -0.489753,0.384444 -0.634708,0.122455 -0.6671,-0.190358 -0.580154,-0.502968 -0.509745,-0.778577 -0.398403,-0.975373 -0.246266,-1.093287 -0.0066,-0.659713 0.286587,-0.736426 0.405519,-0.630912 0.520587,-0.400504 0.695291,-0.199575 0.929562,-0.02792 1.108264,0.182633 1.185519,0.567685 1.224756,0.844718 1.114702,1.003699 0.855357,1.044767 0.906521,1.69716 0.512998,1.647149 0.08925,0.511642 -0.210146,0.425307 -0.206825,0.668455 0.06865,0.605838 0.119744,0.190155 0.04805,-0.219362 0.07807,-0.335177 0.07346,-0.06207 0.07956,0.05137 0.279269,0.576089 0.355981,0.686413 0.133569,0.148817 0.08593,-0.0067 0.05225,-0.419411 0.108766,-0.672996 0.227698,-0.568295 0.115746,-0.105852 0.166572,0.0016 0.406467,0.183242 0.476675,0.377531 0.969951,1.158209 0.730733,1.336775 0.581104,1.554917 0.416022,1.722641 0.235491,1.839879 0.210485,1.318749 0.195711,0.700034 0.118796,0.258871 0.174907,-0.167385 0.200862,-0.504188 0.296752,-1.442085 0.198897,-1.593883 0.286113,-1.417689 0.383156,-1.282358 0.490092,-1.185993 0.624,-1.126629 0.682822,-0.909435 0.691699,-0.635995 0.650429,-0.30624 0.16603,6.8e-5 0.104293,0.134789 0.157898,0.517334 0.07007,0.661069 0.04676,0.517809 0.06411,0.09121 0.192256,-0.211095 0.301699,-0.444552 0.197202,-0.527364 0.147191,-0.299328 0.06397,0.255889 0.05516,0.258193 0.129029,-0.08647 0.03795,-0.549049 -0.153222,-0.665338 -0.123675,-0.648397 0.147529,-0.886191 0.361877,-1.080344 0.489211,-1.003835 0.624678,-0.941692 0.768411,-0.893713 1.158277,-1.041988 1.214997,-0.796061 1.227602,-0.526212 1.196023,-0.232441 0.883141,0.05299 0.695969,0.297294 0.524857,0.552777 0.370076,0.819711 0.194966,0.883684 -0.08356,0.739543 -0.38302,0.977135 -0.559079,0.97212 -0.532311,0.600688 -0.554945,0.342834 -0.563958,0.0799 -0.559486,-0.188121 -0.430864,-0.417175 -0.192662,-0.55054 0.05652,-0.593302 0.316337,-0.545458 0.464409,-0.308476 0.572835,0.137635 0.410263,0.194424 v -0.04296 l -0.165759,-0.167927 -0.450787,-0.360454 -0.329823,-0.124488 -0.3469,-0.0091 -0.676519,0.278456 -0.538749,0.592149 -0.263479,0.807243 0.07834,0.702474 0.325079,0.661543 0.517606,0.54295 0.65585,0.346765 0.325892,0.136754 -1.117141,1.053102 -2.377679,2.398551 -2.250818,2.745857 -1.683269,2.406412 -1.489318,2.482311 -1.336708,2.634109 -1.225365,2.859775 -0.628744,1.710443 -0.505475,1.782954 -0.327587,1.185925 -0.08986,0.252771 -0.03504,0.0081 v 0"
       id="path85" />
    <path
       style="fill:#ff0000;stroke:#000000;stroke-width:0.085636"
       d="m 38.015614,72.273232 -0.866267,-1.859463 -0.516454,-0.830148 -0.483519,-0.607261 -0.664118,-0.492735 -0.736222,-0.295397 -0.289569,-0.0841 -0.04893,-0.163251 0.533666,-2.29663 0.633352,-2.752973 0.145157,-0.744761 0.04446,-0.01674 0.06092,0.13201 0.971781,3.306496 1.056626,4.065555 0.292212,1.616721 0.08634,1.185586 -0.01776,0.406603 -0.201675,-0.569515"
       id="path86" />
    <path
       style="fill:#ff0000;stroke:#000000;stroke-width:0.085636"
       d="m 38.970182,72.106593 -0.274524,-1.579721 -0.560164,-3.050809 -0.875145,-3.325877 -0.957414,-3.579461 -0.304207,-2.115623 -0.02013,-0.43493 0.06831,-0.0147 1.95088,3.397845 0.755808,1.775906 0.106665,0.219905 0.102261,0.03456 0.246333,-0.518961 0.598317,-1.365237 0.980861,-1.737279 0.877382,-1.462009 0.310577,-0.464612 0.03788,0.326977 -0.140346,1.20036 -0.332466,1.784648 -0.774782,2.742808 -1.047273,3.8651 -0.483045,3.026617 -0.178092,1.489725 -0.08769,-0.215228 v 0"
       id="path87" />
    <path
       style="fill:#ff0000;stroke:#000000;stroke-width:0.085636"
       d="m 39.687091,72.41168 0.223225,-1.701701 0.471185,-2.333426 1.762963,-6.351274 0.04696,-0.01525 0.07034,0.189206 0.329009,1.411455 0.452617,1.978258 0.539291,2.439618 -0.141836,0.04825 -0.584492,0.219363 -0.842752,0.614173 -0.842821,0.946911 -0.732969,1.134287 -0.513133,1.17637 -0.175991,0.419546 -0.0616,-0.175788 v 0"
       id="path88" />
    <path
       style="fill:#ff0000;stroke:#000000;stroke-width:0.085636"
       d="m 43.258759,63.715595 -0.273779,-1.77184 -0.23278,-2.173903 0.05191,-2.06412 0.139262,-1.507954 0.220175,-1.145672 0.41914,-2.392994 0.0208,-0.178905 0.06553,-0.01925 0.283673,0.453362 0.573446,1.604727 0.214212,1.687944 -0.05069,0.813003 -0.281505,1.345178 -0.792062,4.166392 -0.184666,1.154007 -0.08322,0.130249 -0.08945,-0.100228 v 0"
       id="path89" />
    <path
       style="fill:#ff0000;stroke:#000000;stroke-width:0.085636"
       d="m 44.32799,66.352957 -0.07238,-1.077497 0.04432,-1.482746 0.196321,-1.677982 0.335583,-1.790341 0.46224,-1.819752 0.863896,-2.653558 0.12293,-0.03924 0.361266,0.122048 3.295043,1.652028 0.149901,0.123201 -0.269781,0.219023 -0.953959,0.910791 -0.879549,0.994957 -1.723658,2.536457 -1.046528,2.172209 -0.73175,1.791831 -0.05964,0.08911 -0.09426,-0.07055 v 0"
       id="path90" />
    <path
       style="fill:#ff0000;stroke:#000000;stroke-width:0.085636"
       d="m 47.299512,61.792905 1.301536,-1.929737 0.819711,-0.882329 0.750793,-0.642229 0.294922,-0.129978 0.304953,0.01105 0.874331,0.507033 0.929224,0.832181 -0.61885,0.115543 -1.009866,0.192798 -0.989604,0.345816 -0.99123,0.508321 -1.014542,0.680111 -0.552032,0.396574 -0.09935,-0.0052 v 0"
       id="path91" />
    <path
       style="fill:#ff0000;stroke:#000000;stroke-width:0.085636"
       d="m 55.315689,61.232878 -0.982285,-1.409286 -1.110026,-1.141741 -1.896803,-1.442153 -2.986566,-1.844961 -1.45774,-0.893375 -0.03944,-0.05726 0.0557,-0.07197 0.730666,-0.443875 1.930212,-1.339485 1.709155,-1.529166 0.988859,-1.166341 0.923734,-1.325119 0.781084,-1.361645 0.560774,-1.27592 0.27283,-0.695698 0.06709,-0.02894 0.15051,0.147191 0.883413,1.22977 0.714063,1.021455 -0.07109,2.487868 -0.175991,3.894578 -0.347172,3.389171 -0.594656,3.976848 -0.106327,-0.119947 v 0"
       id="path92" />
    <path
       style="fill:#ff0000;stroke:#000000;stroke-width:0.085636"
       d="m 46.188334,53.870382 -0.920482,-0.918719 -0.471456,-0.609769 -0.178295,-0.350153 0.616274,-0.194492 1.496028,-0.427814 1.439239,-0.590997 1.36456,-0.745778 1.27226,-0.892019 1.016982,-0.937626 1.013051,-1.156582 0.562061,-0.64677 -1.225908,2.242415 -1.365237,1.735653 -1.804233,1.819277 -1.123647,0.966495 -0.789826,0.468881 -0.591472,0.241183 -0.309899,-0.0032 v 0"
       id="path93" />
    <path
       style="fill:#ff0000;stroke:#000000;stroke-width:0.085636"
       d="m 44.262323,50.570189 -0.580561,-0.490973 -0.322368,-0.503103 0.802498,-0.240777 2.29751,-0.729174 1.829239,-0.78305 1.448523,-0.867081 1.86563,-1.281002 2.207651,-1.501178 -0.800534,1.482203 -1.245696,1.422094 -1.49047,1.376351 -1.000718,0.652326 -1.135507,0.598859 -1.131372,0.479385 -0.988249,0.293838 -1.0058,0.120422 -0.749776,-0.02914 v 0"
       id="path94" />
    <path
       style="fill:#ff0000;stroke:#000000;stroke-width:0.085636"
       d="m 56.172605,45.731004 -0.573107,-0.942912 -0.219566,-0.727548 0.244979,-1.5518 0.380377,-1.996353 0.133907,-0.60882 0.102736,-0.116085 0.196118,1.37242 0.213466,4.014256 -0.0696,0.936542 L 56.43852,46.063534 56.172602,45.731 v 0"
       id="path95" />
    <path
       style="fill:#ff0000;stroke:#000000;stroke-width:0.085636"
       d="m 58.953972,49.311279 -0.559418,-0.445637 -0.483518,-0.697527 -0.243013,-0.467119 -0.05808,-1.45713 -0.295736,-5.417916 -0.205876,-1.714103 -0.30441,-1.706716 -0.18697,-1.086511 0.762042,1.161394 1.248406,2.331055 1.386584,3.206538 0.488737,1.477663 0.354761,1.400544 0.136686,1.498739 -0.02046,0.796264 -0.145361,0.418123 -0.232848,0.353609 -0.301225,0.258193 -0.362283,0.158304 -0.416023,0.05374 -0.561993,-0.121506 v 0"
       id="path96" />
    <path
       style="fill:#ff0000;stroke:#000000;stroke-width:0.085636"
       d="m 57.459029,52.849877 0.06844,-2.235503 0.03802,-1.1864 0.378954,0.36391 0.733173,0.524382 0.839364,0.184733 0.491447,-0.0087 0.460207,-0.189477 0.874738,-0.627524 0.310103,-0.368789 0.174636,-0.355032 0.131333,-0.846344 -0.02711,-0.962564 -0.294787,-1.455368 -0.558266,-1.857159 -0.72111,-1.958471 -0.783186,-1.759371 -1.464312,-2.749585 -1.385161,-2.273791 -0.593708,-0.982759 0.413786,0.305291 0.907606,0.882735 2.20372,2.388792 1.485253,1.972295 1.389294,2.262678 1.164105,2.320958 0.809411,2.147066 0.355167,1.473055 0.106327,1.663819 -0.03388,1.909815 -0.196389,1.056286 -0.195915,0.539698 -0.605025,-0.486636 -0.786099,-0.645957 -0.664931,-0.373532 -0.665203,-0.148817 -0.786777,0.02833 -0.696714,0.133569 -0.660594,0.235423 -0.611734,0.331517 -0.550066,0.421986 -1.008443,1.260401 -0.05557,-0.109918 0.0099,-0.824997 v 0"
       id="path97" />
    <path
       style="fill:#ff0000;stroke:#000000;stroke-width:0.085636"
       d="m 60.361225,57.443135 -0.610989,-0.343105 -0.511506,-0.525467 -0.363639,-0.64311 -0.167249,-0.695969 0.05062,-0.775731 0.266799,-0.6856 0.471321,-0.575547 0.664186,-0.445636 0.503035,-0.203234 0.690548,-0.02955 0.673876,0.02643 0.399013,0.175991 0.810157,0.613835 0.617426,0.637892 0.123201,0.386273 -0.354625,0.865861 -0.71264,1.232752 -0.546678,0.65951 -0.672792,0.312068 -0.698476,0.08905 -0.63159,-0.07671 v 0"
       id="path98" />
    <path
       style="fill:#ff0000;stroke:#000000;stroke-width:0.085636"
       d="m 57.980361,65.39412 -0.400029,-0.734325 -0.697934,-1.269821 -0.532853,-0.939998 0.150578,-0.815443 0.56694,-4.318462 0.161151,-1.588665 0.0391,-0.269781 0.07007,0.299734 0.422867,1.014745 0.681873,0.956263 0.464273,0.392304 0.571412,0.312067 0.648125,0.218685 0.694614,0.112087 0.506898,0.06492 -0.441909,0.755536 -0.746049,1.351548 -0.695766,1.479222 -0.577986,1.451437 -0.392575,1.268059 -0.210823,0.664525 -0.28198,-0.404638 v 0"
       id="path99" />
    <path
       style="fill:#ff0000;stroke:#000000;stroke-width:0.085636"
       d="m 66.574389,48.998195 -0.272288,-0.9442 -0.802092,-2.344676 -1.065097,-2.351656 -1.300994,-2.305236 -1.509852,-2.205685 -1.239122,-1.545295 -1.424941,-1.507751 -1.087053,-1.129272 -0.307662,-0.433168 0.369331,0.264157 1.55302,1.107993 1.895244,1.312514 1.618076,1.243934 1.898023,1.692417 1.828968,1.93211 1.630139,2.023053 1.300451,1.965383 0.840991,1.580398 -1.004309,0.01647 -0.917568,0.01796 -0.43371,0.147394 -0.702406,0.505407 -0.578054,0.680112 -0.217194,0.323452 -0.0719,-0.04581 v 0"
       id="path100" />
    <path
       style="fill:#ff0000;stroke:#000000;stroke-width:0.085636"
       d="m 69.080487,53.092144 -0.807107,-0.448957 -0.61065,-0.648532 -0.159998,-0.868097 -0.0288,-1.046325 0.208722,-0.747201 0.468068,-0.686617 0.447263,-0.381054 0.475048,-0.198219 0.500122,-0.01471 0.521807,0.169486 0.472337,0.27527 0.342224,0.316337 0.253449,0.408704 0.207368,0.55237 0.133501,0.431677 -0.138923,0.68377 -0.383562,1.3157 -0.251416,0.373532 -0.334092,0.27317 -0.646499,0.25311 -0.668861,-0.01342 v 0"
       id="path101" />
    <path
       style="fill:#ff0000;stroke:#000000;stroke-width:0.085636"
       d="m 71.652928,60.102996 -0.17755,-0.753842 -0.322572,-0.501206 -0.409991,-0.280895 -0.52384,-0.082 -0.331382,0.03707 -0.268358,0.213941 -0.278523,0.224852 -0.423544,-1.644845 -0.698002,-2.70845 -0.297498,-1.150822 0.398471,0.125234 0.906725,0.232103 0.906724,-0.01044 0.475048,-0.181548 0.447941,-0.30895 0.380851,-0.402063 0.27378,-0.460952 0.175517,-0.318641 0.132146,0.521807 0.09555,1.30838 0.0095,3.388765 -0.147055,1.784174 -0.208723,1.29869 -0.05218,0.05469 -0.06302,-0.385053 v 0"
       id="path102" />
    <path
       style="fill:#ff0000;stroke:#000000;stroke-width:0.085636"
       d="m 69.960782,61.44404 -0.279201,-0.605703 -0.19788,-0.760686 -0.05489,-0.498767 0.22973,0.110664 0.237185,0.190968 0.641078,-0.0429 0.640399,-0.0429 -0.03524,0.46285 -0.104362,0.547287 -0.202624,0.468136 -0.264292,0.32657 -0.290043,0.122726 -0.150443,-0.06262 -0.169418,-0.215635 v 0"
       id="path103" />
    <path
       style="fill:#ff0000;stroke:#000000;stroke-width:0.085636"
       d="m 70.101738,67.71711 0.07522,-1.318816 -0.0014,-1.388753 -0.135534,-2.080452 -0.01762,-0.428085 0.104361,-0.0066 0.257516,0.06465 0.285977,-0.0658 0.651242,-0.520723 0.252772,-0.280285 0.002,0.207029 -0.424222,2.223372 -0.78,3.11485 -0.233119,0.666693 -0.04879,0.02331 0.01152,-0.210417 v 0"
       id="path104" />
    <path
       style="fill:#ff0000;stroke:#000000;stroke-width:0.085636"
       d="m 68.649487,66.747633 -0.462849,-0.771868 -0.465967,-0.573513 -0.545797,-0.453159 -0.702474,-0.410805 -0.959177,-0.617697 -0.903539,-0.693055 -0.524586,-0.421579 0.584492,-0.08186 0.893713,-0.133637 0.494497,-0.301428 0.185208,-0.428018 -0.08952,-0.518825 -0.265511,-0.411008 -0.327383,-0.300683 -0.861118,-0.10775 -0.77756,-0.08268 0.128351,-0.35693 0.423002,-0.568702 0.395015,-0.347239 0.414329,-0.173416 0.475386,-0.0081 0.578461,0.148613 0.73751,0.350763 0.627524,0.525466 0.542747,0.71386 0.432354,0.807581 0.269036,1.093491 0.174839,1.546988 0.02304,1.881962 -0.08132,1.294014 -0.412702,-0.600824 v 0"
       id="path105" />
    <path
       style="fill:#ff0000;stroke:#000000;stroke-width:0.085636"
       d="m 68.295065,59.580646 -0.487923,-0.461629 -0.661747,-0.454176 -0.773765,-0.305901 -0.77756,-0.125505 -0.825269,0.05293 -0.917025,0.22946 -0.657545,0.177414 0.153357,-0.312474 1.367203,-2.271691 0.720093,-1.487082 0.722398,-2.777573 0.08823,-0.344731 0.482977,1.211609 0.804396,2.776353 0.596825,2.540387 0.259549,1.52754 -0.01897,0.158439 -0.07522,-0.133366"
       id="path106" />
    <path
       style="fill:#ff0000;stroke:#000000;stroke-width:0.085636"
       d="m 59.073378,67.207569 0.597435,-2.000419 0.707693,-1.926213 1.053237,-2.030169 0.51503,-0.654089 0.581714,-0.524585 1.160038,-0.687837 -0.106801,0.196389 -0.339988,0.607804 -0.27012,0.708438 -0.08051,0.594453 0.08444,0.609024 0.427679,0.947249 0.796467,0.76272 0.390475,0.27859 -0.237524,0.03883 -0.574666,-0.01145 -0.623322,-0.13655 -0.771461,-0.331924 -0.579545,-0.228037 -0.303665,0.04493 -0.144411,0.147597 -0.03775,0.21062 0.236575,0.489754 0.482164,0.231221 0.331517,0.06885 -0.536513,0.278319 -0.924954,0.577715 -1.607234,1.558916 -0.176194,0.183852 -0.04981,-0.004 v 0"
       id="path107" />
    <path
       style="fill:#ff0000;stroke:#000000;stroke-width:0.085636"
       d="m 71.320191,45.831774 -0.378818,-0.122252 -0.636334,-0.858745 -1.322815,-1.832831 -1.173727,-1.46289 -1.158141,-1.248542 -1.276326,-1.189991 -2.739623,-2.218832 -2.97159,-2.1388 -1.009595,-0.716366 0.945284,0.362554 1.57911,0.666829 1.710782,0.799449 1.556408,0.837873 3.691684,2.47174 1.410912,1.2316 1.234718,1.226179 1.603371,1.969923 0.582797,0.839161 0.229053,0.460478 -0.157219,0.229595 -0.381529,0.29228 -0.899948,0.420495 -0.438454,-0.01891 v 0"
       id="path108" />
    <path
       style="fill:#ff0000;stroke:#000000;stroke-width:0.0214089"
       d="m 67.501376,37.93812 -0.479588,-0.310916 -1.790137,-1.146552 -2.351046,-1.339757 -3.231681,-1.396749 -2.122264,-0.906657 -0.570599,-0.250264 -0.135263,-0.07217 1.471767,0.364113 2.564445,0.896356 2.197011,1.001328 1.967823,1.145061 0.791385,0.495446 0.969544,0.652666 0.746523,0.745235 0.07644,0.149088 -0.104362,-0.02623 v 0"
       id="path109" />
    <path
       style="fill:#ff0000;stroke:#000000;stroke-width:0.0605536"
       d="m 53.008827,68.682996 0.858949,-0.851156 0.899202,-1.129204 0.604416,-1.120191 0.460613,-1.168916 0.226342,-0.691903 0.05191,-0.07244 0.05808,0.04554 0.971578,1.736194 0.576021,1.591377 -0.08789,0.882667 -0.433845,-0.09874 -0.757027,-0.135263 -0.778103,0.0307 -0.80792,0.197881 -0.846141,0.366213 -0.996177,0.473693 -0.127199,0.02697 0.127199,-0.08342"
       id="path110" />
    <path
       style="fill:#ff0000;stroke:#000000;stroke-width:0.0605536"
       d="m 56.272629,71.948424 -0.191917,-0.80792 -0.376446,-0.73358 -0.546339,-0.637553 -0.701729,-0.519774 -0.381461,-0.280827 1.140453,-0.53387 0.845734,-0.119135 0.69624,0.09772 0.409585,0.324808 0.22946,0.312271 -0.495175,1.673645 -0.564636,1.467905 -0.06377,-0.243691 v 0"
       id="path111" />
    <path
       style="fill:#ff0000;stroke:#000000;stroke-width:0.0605536"
       d="m 51.982968,74.698957 -0.379361,-0.191103 -0.329755,-0.28801 -0.265444,-0.367298 -0.186359,-0.431067 -0.09311,-0.855561 0.09399,-0.820999 0.4947,-0.827843 0.81944,-0.868843 0.456344,-0.33023 0.436692,-0.101854 0.60489,0.07326 0.674012,0.250128 0.603466,0.360386 0.393457,0.403892 0.219565,0.719891 -0.08125,0.774375 -0.816323,1.589411 -0.62156,0.56179 -0.826285,0.363232 -0.623119,0.06302 -0.573988,-0.07658 v 0"
       id="path112" />
    <path
       style="fill:#ff0000;stroke:#000000;stroke-width:0.0605536"
       d="m 41.353418,85.227263 1.016914,-2.482988 0.66012,-1.213033 0.980116,-1.730095 1.110704,-1.917811 1.057303,-1.620313 3.006219,-3.851072 0.701593,-0.791723 0.05001,0.967105 0.03551,0.842684 0.09982,0.339853 0.618036,0.905369 0.869046,0.657341 0.299057,0.207368 -1.837575,0.589574 -1.821581,0.64921 -0.569989,0.356455 -0.596894,0.50622 -1.568877,1.525439 -1.199004,1.30384 -1.236683,1.693502 -1.044428,1.918488 -0.488127,0.949418 -0.141294,0.195169 v 0"
       id="path113" />
    <path
       style="fill:#ff0000;stroke:#000000;stroke-width:0.0605536"
       d="m 43.322867,82.845248 0.638434,-0.904014 1.266772,-1.401425 1.404407,-1.224553 0.539562,-0.302241 0.460545,-0.115882 0.712098,0.130791 0.534208,0.374752 0.118864,0.470304 -0.041,0.203979 -0.10443,0.08471 -0.301225,-0.127402 -0.468271,-0.122659 -0.283199,0.147733 -0.03653,0.32596 0.271611,0.414735 0.188392,0.243962 -0.08044,0.182293 -1.216827,0.353745 -2.102748,0.540782 -1.20368,0.559756 -0.296549,0.164675 v 0"
       id="path114" />
    <path
       style="fill:#ff0000;stroke:#000000;stroke-width:0.0605536"
       d="m 36.102141,84.310374 -0.904556,-1.705022 -1.073297,-1.532893 -1.363881,-1.701634 -1.174202,-1.168305 -0.712639,-0.546204 -1.233634,-0.668862 -1.127916,-0.601094 -0.301429,-0.208723 1.312311,0.569922 1.291304,0.548914 -0.729717,-0.665474 -0.848309,-0.440486 -1.101488,-0.229053 -1.935837,-0.367976 -0.02182,-0.06777 0.346155,-0.191781 0.898999,-0.664118 0.587203,-0.874874 0.09955,-0.355371 0.03626,-0.776815 0.02304,-0.864642 0.554064,0.5891 1.803013,2.051516 1.765673,2.499252 1.699398,2.760157 1.7263,3.239948 0.776883,1.759913 0.328738,1.002954 -0.720161,-1.390582 v 0"
       id="path115" />
    <path
       style="fill:#ff0000;stroke:#000000;stroke-width:0.0605536"
       d="m 34.30787,82.662954 -0.992179,-0.457428 -1.374725,-0.395761 -1.068078,-0.303596 -0.680586,-0.3551 -0.192865,-0.216178 -0.05008,-0.180938 0.06899,-0.03863 0.03626,0.082 0.03782,0.08471 0.120083,-0.472337 0.02311,-0.323249 -0.496937,-0.01627 -0.534276,-0.07387 -0.0717,-0.112493 0.0011,-0.200591 0.147326,-0.368653 0.318438,-0.297498 0.409517,-0.175517 0.420631,-6.78e-4 0.490634,0.202624 0.617901,0.387628 1.48261,1.37093 1.458078,1.702311 0.196186,0.301564 -0.36723,-0.142989 v 0"
       id="path116" />
    <path
       style="fill:#ff0000;stroke:#000000;stroke-width:0.0605536"
       d="m 24.544452,74.627124 -0.782846,-0.501477 -0.488263,-0.574665 -0.25616,-0.810224 -0.184055,-0.636537 -0.167317,-0.301564 -0.0614,-0.394337 0.155051,-0.540714 0.341479,-0.482299 0.47498,-0.368789 0.555758,-0.200184 0.902591,0.0029 0.641213,0.246401 0.500392,0.406535 0.545933,0.442384 0.428966,0.578596 0.24098,0.704101 0.03537,0.737171 -0.187986,0.677807 -0.384036,0.531024 -0.49382,0.400504 -0.51625,0.166029 -0.66649,0.06641 -0.634097,-0.149088 v 0"
       id="path117" />
    <path
       style="fill:#ff0000;stroke:#000000;stroke-width:0.0605536"
       d="m 21.62816,72.438787 -1.026537,-3.354339 0.352118,-0.373736 0.585305,-0.35659 0.754181,-0.05184 1.139979,0.143531 0.368992,0.05116 -0.175314,-0.407755 -0.397115,-0.215025 -0.317896,-0.154238 h -0.890189 -0.89019 l -0.351508,0.144479 -0.365129,0.104023 -0.09704,-0.216991 0.03138,-0.479452 0.192933,-0.707286 0.874264,-2.108779 0.344054,-0.755536 0.116966,-0.04581 0.146445,0.335041 0.694885,1.913066 0.561993,0.94786 1.044969,1.187348 0.666219,0.738527 -0.05415,0.06356 -0.251484,-0.0059 -0.380377,0.01965 -0.406603,0.168469 -0.668387,0.376582 -0.51991,0.426459 -0.383087,0.488195 -0.257787,0.561789 -0.213331,1.047748 -0.120354,0.716841 -0.108292,-0.201065 v 0"
       id="path118" />
    <path
       id="rect2"
       style="fill:none;stroke:#000000;stroke-width:0.1"
       d="m 0.05,0.05 h 78 v 122 h -78 v -122" />
  </g>
</svg>
