<?xml version="1.0" encoding="UTF-8" standalone="no"?>
<!-- Created with Inkscape (http://www.inkscape.org/) -->

<svg
   width="115mm"
   height="160mm"
   viewBox="0 0 115 160"
   version="1.1"
   id="svg1"
   inkscape:version="1.4.2 (ebf0e940d0, 2025-05-08)"
   sodipodi:docname="Lantern2_SideD.svg"
   xmlns:inkscape="http://www.inkscape.org/namespaces/inkscape"
   xmlns:sodipodi="http://sodipodi.sourceforge.net/DTD/sodipodi-0.dtd"
   xmlns="http://www.w3.org/2000/svg"
   xmlns:svg="http://www.w3.org/2000/svg">
  <sodipodi:namedview
     id="namedview1"
     pagecolor="#ffffff"
     bordercolor="#666666"
     borderopacity="1.0"
     inkscape:showpageshadow="2"
     inkscape:pageopacity="0.0"
     inkscape:pagecheckerboard="0"
     inkscape:deskcolor="#d1d1d1"
     inkscape:document-units="mm"
     inkscape:zoom="2.114885"
     inkscape:cx="43.028345"
     inkscape:cy="208.28556"
     inkscape:window-width="2560"
     inkscape:window-height="1383"
     inkscape:window-x="0"
     inkscape:window-y="0"
     inkscape:window-maximized="1"
     inkscape:current-layer="layer1" />
  <defs
     id="defs1">
    <inkscape:path-effect
       effect="bspline"
       id="path-effect9"
       is_visible="true"
       lpeversion="1.3"
       weight="33.333333"
       steps="2"
       helper_size="0"
       apply_no_weight="true"
       apply_with_weight="true"
       only_selected="false"
       uniform="false" />
    <inkscape:path-effect
       effect="bspline"
       id="path-effect8"
       is_visible="true"
       lpeversion="1.3"
       weight="33.333333"
       steps="2"
       helper_size="0"
       apply_no_weight="true"
       apply_with_weight="true"
       only_selected="false"
       uniform="false" />
    <inkscape:path-effect
       effect="bspline"
       id="path-effect7"
       is_visible="true"
       lpeversion="1.3"
       weight="33.333333"
       steps="2"
       helper_size="0"
       apply_no_weight="true"
       apply_with_weight="true"
       only_selected="false"
       uniform="false" />
    <inkscape:path-effect
       effect="bspline"
       id="path-effect6"
       is_visible="true"
       lpeversion="1.3"
       weight="33.333333"
       steps="2"
       helper_size="0"
       apply_no_weight="true"
       apply_with_weight="true"
       only_selected="false"
       uniform="false" />
    <inkscape:path-effect
       effect="bspline"
       id="path-effect5"
       is_visible="true"
       lpeversion="1.3"
       weight="33.333333"
       steps="2"
       helper_size="0"
       apply_no_weight="true"
       apply_with_weight="true"
       only_selected="false"
       uniform="false" />
    <inkscape:path-effect
       effect="bspline"
       id="path-effect4"
       is_visible="true"
       lpeversion="1.3"
       weight="33.333333"
       steps="2"
       helper_size="0"
       apply_no_weight="true"
       apply_with_weight="true"
       only_selected="false"
       uniform="false" />
    <inkscape:path-effect
       effect="bspline"
       id="path-effect3"
       is_visible="true"
       lpeversion="1.3"
       weight="33.333333"
       steps="2"
       helper_size="0"
       apply_no_weight="true"
       apply_with_weight="true"
       only_selected="false"
       uniform="false" />
    <inkscape:path-effect
       effect="bspline"
       id="path-effect2"
       is_visible="true"
       lpeversion="1.3"
       weight="33.333333"
       steps="2"
       helper_size="0"
       apply_no_weight="true"
       apply_with_weight="true"
       only_selected="false"
       uniform="false" />
  </defs>
  <g
     inkscape:label="Layer 1"
     inkscape:groupmode="layer"
     id="layer1">
    <path
       id="path1"
       style="fill:#000000;stroke-width:0.249817"
       d="m 29.885046,26.132634 -0.82642,0.209062 -1.293947,0.468203 -1.148856,0.709726 -0.995161,0.944538 -0.832723,1.172508 -0.93661,1.494604 -0.780542,0.952874 -0.724227,0.507915 -0.767464,0.15966 -0.482976,-0.03761 -0.382885,-0.137771 -0.287332,-0.240505 -0.196457,-0.345816 -0.0719,-0.27134 0.03897,-0.237863 0.169486,-0.303258 0.242335,-0.182632 0.269713,-0.04208 0.251416,0.118593 0.105649,0.165149 0.01098,0.292212 0.007,0.284418 0.124624,0.07068 0.368925,-0.214483 0.275067,-0.445975 -0.04127,-0.359031 -0.243623,-0.319657 -0.387289,-0.229189 -0.472269,-0.08776 -0.57182,0.108088 -0.46495,0.303529 -0.326163,0.467865 -0.155526,0.601162 0.08213,0.677875 0.433032,0.616478 0.706269,0.48257 0.97639,0.176466 0.596622,-0.01193 0.605974,-0.222683 1.012441,-0.585644 1.065638,-1.028028 1.549497,-1.607369 0.953348,-0.642297 0.667913,-0.276829 0.612141,-0.142108 0.643313,-0.0185 0.761568,0.09386 0.722872,0.193882 0.693936,0.323927 0.651107,0.446044 0.594656,0.560231 0.324537,0.460274 0.176602,0.501681 0.02602,0.529735 -0.127267,0.544306 -0.522281,0.721043 -1.150551,0.89622 -1.241291,0.746862 -1.355343,0.644263 -1.380891,0.504526 -1.318207,0.327722 -0.622645,0.136212 0.04615,0.0883 0.29499,0.07732 1.208966,0.04974 1.481255,-0.05462 1.901749,-0.322165 2.096039,-0.603331 2.06107,-0.8067 1.79705,-0.932477 1.351887,-0.909028 2.328344,-1.739448 2.043112,-1.501178 1.699532,-1.117684 1.518866,-0.83279 1.50111,-0.646702 1.722912,-0.532853 1.342739,-0.234068 0.4167,-4.07e-4 -0.198151,-0.121167 -0.531227,-0.11656 -0.908148,0.06153 -2.890133,0.649345 -1.533842,0.418462 -0.958499,0.288214 -1.043614,0.309967 -1.410235,0.376107 -0.485009,0.129164 -0.94027,-0.466441 -1.578975,-0.709319 -1.608453,-0.590455 -1.511953,-0.430457 -1.289338,-0.229121 -0.594657,-0.07773 -1.553427,-0.06621 -1.387871,-0.03185 v 0 m 20.653194,0.707422 -0.702813,0.199574 -1.433005,0.421986 -1.36029,0.51503 -1.320917,0.622171 -1.314887,0.743338 -0.879007,0.537258 0.05286,0.297633 0.04798,0.925225 -0.03754,0.59154 -0.149426,0.466034 -0.21611,0.510287 0.156949,-0.0068 0.470439,-0.184936 1.367,-0.67923 1.422093,-0.895815 1.434834,-1.031009 1.512089,-1.383738 1.016982,-1.16424 0.113984,-0.27039 -0.04113,-0.142176 -0.140075,-0.07176 v 0 m -7.818501,3.610837 -0.185546,0.09982 -1.379807,1.094033 -2.023053,1.559729 -1.99615,1.473665 -0.356794,0.290111 -0.250806,0.573784 -0.749911,1.538315 -1.051476,1.47624 -0.913704,0.863828 -1.144723,0.705659 -1.375402,0.547559 -1.605879,0.389254 -1.55573,0.106463 -2.219714,0.0063 0.04988,0.01498 -0.05476,-0.002 -0.77363,-0.0091 -1.499552,0.196457 -0.03592,0.105581 -0.36086,0.156407 -0.650972,0.302919 -0.556368,0.387628 -0.450516,0.462511 -0.333008,0.527838 -0.180328,0.470846 -0.03537,0.598317 0.118051,0.921023 0.411414,0.701322 0.54844,0.608075 0.911197,0.592488 -0.195373,-0.422663 -0.296346,-0.602112 -0.128554,-0.568905 0.03761,-0.556572 0.202014,-0.56511 0.620815,-0.853934 0.956398,-0.642161 1.368083,-0.466713 1.855939,-0.327519 2.04894,-0.326705 1.007698,-0.185682 0.08586,0.0043 -0.0031,0.04547 -0.674147,0.382207 -1.110433,0.40396 -1.222519,0.208384 -1.796982,0.359911 -0.730733,0.283199 -0.611464,0.346968 -0.486703,0.406942 -0.356388,0.463053 -0.220514,0.515437 -0.07908,0.564026 0.112493,0.65463 0.3284,0.581036 0.507915,0.462104 0.651242,0.297972 0.80548,0.06411 0.812258,-0.193678 0.586728,-0.495175 0.199574,-0.438725 0.02934,-0.477284 -0.133298,-0.447398 -0.288214,-0.349001 -0.548371,-0.212383 -0.246063,0.01044 -0.146513,0.09718 -0.02175,0.169147 0.229053,0.04588 0.426865,0.232916 0.191239,0.242742 0.0087,0.28496 -0.157762,0.470847 -0.376311,0.292618 -0.522823,0.118661 -0.548779,-0.147055 -0.366078,-0.229392 -0.256499,-0.299395 -0.150849,-0.375905 -0.04913,-0.458919 0.172535,-0.650158 0.467254,-0.615123 0.471389,-0.368111 0.540578,-0.245995 1.736737,-0.269442 1.326407,-0.129435 0.770173,-0.209943 1.441137,-0.635723 1.532825,-0.923938 1.415656,-1.070653 1.08956,-1.076143 1.172169,-1.713696 0.811376,-1.736398 0.138652,-0.842616 0.06512,-0.418801 0.172671,0.247892 0.07441,0.331517 -0.07617,0.709657 -0.241251,1.850789 -0.234678,1.417554 -0.241115,0.635859 -0.32901,0.507779 -0.426527,0.391152 -0.533666,0.28591 -0.776815,0.330365 -0.385866,0.250942 -0.448957,0.503577 -0.367841,0.769564 -0.316066,0.934171 -0.06485,0.334769 0.07637,0.161083 1.476104,0.841194 0.918584,0.455937 0.423002,0.233255 0.19334,-0.226207 0.408704,-0.556504 0.606516,-0.647176 0.783592,-0.499919 0.837941,-0.27344 0.893374,-0.04723 0.94996,0.178702 0.881176,0.353474 0.661747,0.524111 0.317895,0.293025 0.127945,0.01199 0.05916,-0.170164 0.922378,-1.227466 0.104023,-0.129639 -0.07454,-0.198151 -0.05082,-0.231831 0.388712,-0.267884 -0.694071,-0.784066 -0.561519,-0.536106 -0.45221,-0.312 -0.481418,-0.157491 -0.649074,-0.07265 -0.698679,-0.09237 -0.497411,-0.180396 -0.33599,-0.29106 -0.214347,-0.424087 -0.07285,-0.472676 0.03632,-0.556571 0.129571,-0.536242 0.207029,-0.412092 0.410127,-0.324673 0.322707,-0.05923 0.710674,0.132078 0.860236,0.160134 0.334973,-0.03686 0.165285,-0.245792 0.05957,-0.416022 0.02982,-0.280692 0.106395,-0.167249 0.117305,-0.339311 0.111748,-0.311322 0.09569,-0.115272 -0.05333,-0.200252 -0.101854,-0.377802 0.21882,-0.232644 0.362148,-0.39637 0.100092,-0.204861 -0.297294,-0.08688 -0.493142,-0.290924 -0.332601,-0.425578 -0.0553,-0.647448 0.128486,-0.893781 0.17362,-0.963988 -0.04337,-0.555148 -0.154103,-0.191578 v 0 m 7.220727,0.981946 -0.292483,0.399284 -0.231425,0.504595 0.47769,0.553318 1.967078,2.044739 1.832559,2.413934 0.527364,0.864438 0.07217,0.484874 -0.170298,0.616952 -0.382953,0.799449 -1.210321,1.794949 -0.569448,0.779526 -0.242674,0.631725 -0.09786,0.577037 0.01416,0.838145 0.07075,1.15665 0.09555,1.998589 -0.05828,4.091035 -0.136077,2.088855 -0.237727,2.511993 -0.465831,2.748026 -0.723483,2.520329 -0.11561,0.300547 0.01464,0.220447 0.689328,0.810088 0.590794,0.635995 0.151934,-0.742457 0.314507,-1.436461 0.305969,-1.607979 0.222818,-1.829239 0.192256,-2.585656 0.06411,-2.306861 -0.06404,-2.173903 -0.192324,-2.186846 -0.08803,-0.863557 0.05794,-0.128148 0.160405,0.186766 0.175381,0.603196 0.453566,2.713058 0.264292,2.09265 0.13384,2.963797 0.0347,3.308054 -0.230814,2.49539 -0.241794,1.264196 -0.347916,1.062182 -0.206961,0.528788 0.10714,0.670962 0.07407,0.629422 -0.07088,0.448144 -0.632742,1.557221 -1.050662,1.670935 -2.670975,3.979627 -0.673741,0.991298 -1.467362,2.21463 -0.729107,1.156108 -1.562237,2.809626 -0.796738,1.749749 -0.569854,1.663006 -0.354761,1.617602 -0.15146,1.614891 -0.0094,1.030061 0.08295,0.619392 0.344731,1.18457 0.476132,1.160851 0.405044,0.706134 0.724025,0.863354 0.687023,0.712232 0.647109,0.53265 0.699967,0.418124 0.845531,0.369331 0.89229,0.347645 0.62793,0.187715 0.519842,0.02304 0.59486,-0.0881 1.408066,-0.508254 1.022336,-0.569244 0.83523,-0.668184 0.67347,-0.789488 0.536716,-0.935864 0.437369,-1.271312 0.111748,-1.509852 -0.120083,-1.471903 -0.480131,-1.265891 -0.363841,-0.620069 -0.544238,-0.610582 -0.604416,-0.554336 -0.622712,-0.361876 -0.611124,-0.258871 -0.559554,-0.109783 -0.925157,6.78e-4 -0.778984,0.224309 -0.627185,0.443875 -0.469558,0.662763 -0.202421,0.573988 -0.03815,0.578731 0.124624,0.563823 0.285842,0.528584 0.495378,0.433032 0.740085,0.119948 0.640535,-0.103684 0.303597,-0.353067 -0.02331,-0.236507 -0.271543,-0.03524 -0.610853,0.08471 -0.359911,-0.07251 -0.301293,-0.327993 -0.129774,-0.521129 0.08884,-0.464883 0.269375,-0.434387 0.399623,-0.344935 0.479724,-0.19788 0.706404,-0.02914 0.691022,0.193136 0.638909,0.399149 0.549863,0.588219 0.302648,0.52655 0.205944,0.576699 0.08512,0.534005 -0.05964,0.400504 -0.16542,0.481147 0.03483,0.01965 0.115882,-0.186359 0.164607,-0.198558 0.156948,0.208723 0.05313,0.53265 -0.09311,0.80033 -0.245114,0.760347 -0.390813,0.704101 -0.530278,0.634978 -0.703627,0.564501 -0.769428,0.346968 -0.86105,0.136889 -0.978354,-0.06506 -0.623932,-0.147055 -0.665203,-0.336125 -0.671301,-0.48318 -0.584153,-0.622102 -0.479724,-0.737985 -0.357946,-0.832858 -0.252365,-0.99821 -0.06628,-1.127646 0.04561,-0.817272 0.220176,-1.033449 0.325553,-1.248949 0.348594,-0.956194 1.471835,-2.619879 1.816499,-3.139652 1.073364,-1.949661 0.816391,-1.53086 0.724838,-1.575316 1.389226,-3.78771 0.631319,-2.185694 0.44584,-1.893075 0.44191,-3.098654 0.09569,-2.915953 -0.04615,-2.286193 -0.145767,-2.184948 -0.253992,-2.180273 -0.371093,-2.271962 -0.420156,-1.981918 -0.426662,-1.454894 -0.347375,-1.024707 -0.325689,-0.8765 -0.05198,-0.312746 0.345816,-0.529126 1.351751,-2.255291 1.085224,-1.809789 0.559282,1.78458 0.895136,4.626803 0.16664,2.346641 0.299734,3.882652 0.628676,3.387815 0.734393,3.844635 0.513675,3.641875 0.205605,1.53662 0.468204,0.06553 0.34629,-0.02223 0.121913,-0.08322 -0.286791,-3.529991 -0.190561,-1.219335 -0.167385,-1.018744 -0.159998,-0.895814 -0.658019,-3.707134 -0.350424,-2.223441 -0.347917,-3.692429 -0.435946,-3.912063 -0.257041,-1.359476 -0.331313,-1.605269 -0.303258,-1.082851 -0.367027,-1.07472 -0.122117,-0.369263 0.247147,-0.211366 0.443672,-0.327451 0.245588,-0.196999 0.316134,-0.04046 0.433235,-0.06689 0.05082,-0.07698 -0.117034,-0.117034 -0.412905,-0.240913 -0.247892,-0.224106 0.0658,-0.168062 0.225393,-0.133637 1.096609,-0.227833 0.516792,-0.118525 0.05604,-0.08268 -0.04019,-0.121642 -0.11866,-0.111003 -0.234339,-0.0368 -1.65013,0.04974 -0.171654,-0.04595 0.184936,-0.376379 0.40064,-0.806226 0.212924,-0.673741 -0.01416,-0.186224 -0.135331,-0.05435 -0.170706,0.04717 -0.1827,0.277845 -0.638705,0.976931 -0.738256,0.831774 -0.540307,0.411144 -0.244436,-0.315863 -1.43951,-2.180747 -1.580263,-1.929128 -1.192092,-1.159293 -0.811037,-0.608549 v 0 m -13.878308,3.8466 -0.980862,0.445772 -2.479736,0.990349 -1.419179,0.516589 -0.973747,0.488873 -1.393157,0.657002 -1.315564,0.330162 -1.592664,0.03781 -1.838929,-0.17301 -2.174852,-0.178837 -1.849975,0.03876 -1.072958,0.332398 -1.000921,0.531226 -0.747878,0.639519 -0.528584,0.716502 -0.312339,0.799043 -0.09914,0.887072 0.0839,0.889986 0.228036,0.762719 0.356455,0.598791 0.469085,0.398064 0.62156,0.09738 -0.227223,-0.354761 -0.224513,-0.110325 -0.390474,-0.501071 -0.198965,-0.655105 -0.02284,-0.813816 0.144141,-0.845395 0.301767,-0.749911 0.44916,-0.655783 0.523637,-0.495581 0.645415,-0.370416 0.814629,-0.280352 0.702271,-0.143125 0.932815,-0.02358 2.280432,0.170909 2.298459,0.259345 1.336978,0.01138 1.203274,-0.124759 1.308313,-0.347714 0.927122,-0.3572 0.959922,-0.487178 0.85922,-0.54146 0.624745,-0.520248 0.392711,-0.321691 0.270188,-0.07298 0.06295,0.227765 -0.213669,0.373668 -0.442046,0.458242 -0.622034,0.481553 -0.890935,0.549998 -0.910045,0.431406 -2.340136,0.694275 -1.613062,0.06282 -2.484953,-0.140888 -2.486784,-0.119677 -1.644438,0.148342 -1.157666,0.507509 -0.382343,0.298785 -0.145157,0.261446 0.152951,0.05503 0.772952,-0.231832 1.152855,-0.262326 1.644438,-0.04405 1.960842,0.116559 2.652881,0.08925 2.238349,-0.08295 2.454188,-0.764685 0.949079,-0.438996 0.794164,-0.489143 1.020573,-0.874061 0.99306,-1.423584 0.442926,-0.851224 0.151324,-0.508592 v 0 m -16.084874,6.370384 -0.06194,0.0021 0.03185,0.0347 0.03009,-0.0368 v 0 m 25.727938,0.738933 -0.217465,0.210824 -0.299802,0.36418 -0.02751,0.210349 0.359844,0.552777 0.599536,0.916348 0.149562,0.480537 -0.01071,0.612886 -0.158236,0.642161 -0.286181,0.615936 -0.394473,0.534209 -0.299395,0.377463 0.123268,0.301225 0.90171,2.690559 0.216787,-0.404841 0.19578,-0.663644 0.09176,-0.150917 0.405993,-1.477053 0.64982,-1.35148 0.593843,-0.750725 0.375498,-0.334567 -0.41426,1.041175 -0.744558,1.766283 -0.467119,1.395258 -0.219905,0.621629 -0.390135,1.275716 0.514759,1.705835 0.311322,-0.37543 0.352661,-1.814669 0.777289,-2.754125 0.847632,-2.222898 0.403147,-0.902998 0.15749,-0.228104 -0.410397,1.604252 -0.467526,1.718711 -0.705321,3.029937 -0.395014,1.470141 -0.259142,0.645008 -0.02623,-0.0094 -0.294177,0.794909 0.687769,2.291343 0.14265,-0.03348 0.146987,-0.323724 0.540307,-1.617873 0.0035,-0.0081 0.316608,-2.08506 0.267884,-1.553494 0.262665,-1.619297 0.26192,-1.526862 0.439131,-2.047245 0.533396,-2.518635 -0.271408,0.369467 -0.583814,0.697256 -0.57785,0.407078 -0.569854,0.147529 -0.660527,-0.108834 -0.850071,-0.36208 -0.856984,-0.499105 -0.392168,-0.486027 -0.171993,-0.452074 -0.104362,-0.4577 -0.103954,-0.350559 v 0 m -1.038329,1.35209 -0.226071,0.108631 -0.318506,0.290586 -0.546406,0.72626 -0.43554,1.058388 -0.199303,0.446111 -0.324266,-0.456615 -0.402469,-0.554539 -0.476471,-0.446857 -0.535767,-0.335108 -0.580697,-0.219633 -0.611056,-0.10016 -0.626847,0.02318 -0.628066,0.150375 -0.614851,0.281573 -0.738662,0.567889 -0.615529,0.70959 -0.199168,0.34568 0.01599,0.187715 1.277208,1.3342 1.296792,1.381908 0.570803,0.974559 0.174433,0.590184 0.0267,0.535361 -0.120219,0.473692 -0.266528,0.404977 -0.59547,0.41792 -1.280867,0.411685 -1.247594,0.386748 -1.035821,0.435065 -0.956398,0.548575 -1.009459,0.727616 -0.953213,0.819102 -1.038667,1.039819 -2.267964,2.671923 -1.676221,1.909476 -1.825037,1.624582 -1.950136,1.320849 -2.051176,0.998617 -1.605675,0.563349 -1.330405,0.339852 -1.143503,0.121303 -1.32993,0.02663 -1.370456,-0.06594 -1.265077,-0.156271 -1.52964,-0.415412 L 10.635658,65.343016 8.9351084,64.24695 8.2825785,63.668761 7.8169503,63.113951 7.4243074,62.240974 7.2471641,61.331132 7.3082901,60.760669 7.484688,60.206333 7.7626012,59.70079 8.1279339,59.2765 l 0.5985873,-0.417785 0.6832963,-0.244978 0.7318855,-0.06424 0.744354,0.124353 0.451804,0.247621 0.390813,0.405247 0.26009,0.469152 0.05964,0.43947 -0.136416,0.328739 -0.340936,0.08349 -0.637757,0.07861 -0.458309,0.180871 -0.113036,0.155796 -0.0309,0.259548 0.146309,0.50351 0.386409,0.316947 0.547558,0.09555 0.630032,-0.160676 0.498359,-0.361944 0.375769,-0.594047 0.140211,-0.578732 -0.06777,-0.632403 -0.265308,-0.646092 -0.452549,-0.620069 -0.474641,-0.415549 -0.567957,-0.303935 -0.674622,-0.197745 -0.7947731,-0.09698 -0.6336229,-0.0078 -0.4568862,0.08349 -0.762245,0.30231 -0.6448045,0.435471 -0.5348998,0.575276 -0.4327136,0.721584 -0.3500445,0.978152 -0.083144,1.213371 0.1360697,1.415859 0.4561136,1.137404 0.301164,0.646431 0.2840258,0.06655 0.8369244,0.506424 0.035036,-0.03361 0.5452546,0.367704 1.0726863,0.654157 1.3754702,0.529668 1.633663,0.410465 1.764928,0.265987 1.769332,0.09623 1.114431,-0.03321 1.078853,-0.169553 1.41979,-0.333754 1.382586,-0.443536 1.285407,-0.53143 1.128052,-0.597367 1.994659,-1.381027 2.760292,-2.420033 0.936813,-0.778848 -0.02277,0.08478 -0.900693,1.30994 -1.080818,1.245424 -1.277411,1.198124 -1.49081,1.16817 -1.896871,1.183079 -1.920995,0.944336 -2.401262,0.692377 -2.518837,0.101921 -2.564648,-0.09142 -2.035929,-0.52506 -1.4218907,-0.648803 -0.7760018,-0.709184 -0.057467,0.143938 -0.2539913,0.12293 -0.397861,0.0024 -0.9352546,-0.239896 -0.2094005,-0.08959 0.1238106,0.72538 0.2121112,0.66344 0.7959253,1.411658 0.4337776,0.815307 -0.014231,0.832384 1.0306707,0.307324 0.8757555,0.411956 0.115611,0.08125 1.630816,0.38031 1.615163,0.252161 1.347143,0.01362 1.655755,-0.28679 1.541906,-0.417446 1.399392,-0.557114 2.270336,-1.245831 2.203245,-1.676899 2.339119,-2.284905 2.677955,-3.069988 1.614756,-1.975819 0.847157,-1.048155 0.916483,-1.163697 0.960193,-1.140183 -0.38939,0.76909 -0.878262,1.320172 -1.159157,1.652231 -1.398376,1.981241 -1.501991,1.929669 -1.487421,1.733417 -1.354734,1.392479 -2.375645,2.09387 -0.925903,0.649209 -1.003428,0.578528 -1.353039,0.650633 -1.365238,0.504188 -1.413419,0.368992 -1.497383,0.245046 -1.395936,0.09616 -0.851291,-0.02785 -0.622306,-0.133772 -1.300316,-0.345342 -1.116396,-0.57392 -0.8832779,-0.224987 -0.9250895,-0.400165 -0.091553,1.122089 0.1282832,1.135981 0.4547177,1.3794 0.7343249,1.108671 0.9898746,0.81185 1.221164,0.487924 0.759603,0.105717 0.882531,0.0081 0.879482,-0.08335 0.750251,-0.170773 1.276123,-0.391694 1.462415,-0.553658 1.331693,-0.856577 1.184502,-0.940608 1.256132,-1.09444 2.706756,-2.432841 2.494035,-2.688119 2.870345,-3.652447 3.056028,-4.308229 1.697025,-2.511926 0.661882,-1.057235 0.775392,-1.163427 0.682822,-0.718196 0.256566,-0.166911 0.0016,0.105649 -0.461901,0.918178 -0.763465,1.421145 -0.527364,0.925157 -0.859423,1.454419 -2.654507,4.351871 -0.925564,1.455435 -0.571481,0.882126 -0.507101,0.729445 -1.131102,1.682727 -0.389119,0.524924 -1.499552,1.874236 -0.700034,0.76028 -1.61313,1.645454 -1.626479,1.450353 -1.51236,1.091051 -1.496231,0.906047 -1.90236,0.859966 -1.83073,0.660052 -1.45679,0.349001 -1.673578,0.09894 -1.536891,0.122658 -0.204047,0.195847 -0.06363,0.376786 0.05367,0.869452 0.297566,0.874874 0.303596,0.843024 0.177889,0.533327 1.381908,0.132146 0.862541,-0.106394 1.248813,-0.124014 0.727006,-0.106394 1.655484,-0.38424 1.929466,-0.644466 1.774009,-0.819305 1.648504,-1.01854 1.635357,-1.298419 1.734907,-1.656907 1.345585,-1.428532 1.140792,-1.346533 2.247904,-3.180448 1.822192,-2.986906 1.735449,-3.335161 1.833576,-3.854189 1.838252,-4.383857 1.387126,-3.178348 0.45526,-0.713385 -0.320065,1.13571 -0.822625,2.524869 -1.530454,4.412591 -1.298419,3.221718 -0.461968,1.024301 -1.808028,3.508306 -0.645753,1.099589 -2.090346,3.224633 -0.683229,0.953552 -1.557696,1.914219 -2.30659,2.456559 -2.396518,2.084518 -1.068417,0.736629 -1.2377,0.725786 -2.552179,1.185925 -1.590834,0.493345 -1.462144,0.350357 -0.461223,0.04473 0.0052,0.0081 -0.06587,0.176195 -0.320606,0.178227 -1.042666,0.275813 -0.994957,0.05896 -0.971036,-0.11046 0.285097,0.386272 0.693597,0.752216 0.775459,0.645821 1.705767,0.126047 0.768683,0.0122 0.327451,-0.03863 0.01789,-0.0027 0.474844,-0.0698 0.110664,-0.03388 3.909962,-1.269279 2.359788,-1.42311 1.120259,-0.832859 1.008036,-0.872163 2.073743,-2.225473 1.893279,-2.264101 1.00336,-1.336369 2.70452,-3.978948 1.082716,-1.831408 1.105147,-2.157842 1.121343,-2.471265 1.131305,-2.771744 0.896017,-2.615338 0.790504,-2.627807 0.946301,-3.575667 0.476606,-1.460856 0.170841,-0.317286 -0.03849,0.528787 -0.203979,2.123348 -0.35388,2.097258 -0.692987,2.959731 -1.242917,3.924057 -1.307026,3.430848 -2.002316,4.071045 -1.142283,2.116978 -1.072619,1.788308 -1.163968,1.71112 -1.416402,1.88596 -0.664321,0.861321 -0.828183,0.956195 -0.346019,1.104604 -0.0079,0.203302 -0.339446,0.588219 -1.536485,1.890703 -0.878804,0.864709 -0.842956,0.694614 -1.480306,1.023284 -1.191889,0.676316 -1.066858,0.407958 -1.105215,0.217533 -0.685329,0.102328 0.59093,0.943997 1.187348,1.406168 0.59547,0.507576 0.700238,0.437776 0.774918,0.353067 0.819576,0.251416 0.784811,0.08403 1.34999,0.0041 0.869859,-0.385595 0.771868,-0.586864 0.941286,-1.998454 1.841369,-3.736681 0.971442,-1.904257 2.238824,-4.46179 2.118333,-5.054074 0.853934,-1.993778 0.762923,-1.455571 0.315524,-0.50168 0.0597,-0.03924 0.01626,0.0759 -0.535767,1.93482 -0.321827,0.971104 -0.562467,1.722709 -0.504933,1.454283 -1.458146,3.864761 -2.070083,4.463823 -1.272668,2.676802 -1.326881,2.776421 -1.000514,1.813449 -0.108563,0.480469 -0.176127,0.431677 0.323588,0.311051 1.214998,1.028028 1.210999,0.641755 1.466685,0.351712 1.98185,0.159252 h 3.39e-4 l 1.817515,0.01491 -0.2504,-0.413379 -0.513065,-0.857933 -0.41365,-0.951451 -0.299464,-1.004309 -0.170705,-1.017863 -0.104158,-3.244691 0.07712,-1.590495 0.156949,-1.275378 0.257718,-1.428532 0.83069,-3.330078 0.99001,-3.701442 0.824727,-3.073716 0.564229,-2.220119 0.337481,-1.808909 0.365265,-1.520153 0.44794,-1.622143 0.355778,-1.421077 0.908419,-4.660076 0.296617,-1.743649 0.359979,-3.180449 0.255346,-2.646239 0.115137,-0.245792 0.1478,0.263818 0.35266,1.363272 0.121168,1.573079 0.0011,0.539697 0.875823,0.653818 1.33176,0.943793 -0.100498,-0.347103 -0.82676,-2.185898 -0.129435,-0.552641 0.332195,0.507847 0.548371,0.987164 0.661543,1.222859 0.449229,0.807649 0.513811,0.60123 0.618781,0.545254 0.07468,-0.0616 -0.0081,-0.200591 -0.281912,-0.91201 -0.511709,-1.210999 -0.67591,-1.291168 -0.772546,-1.252744 -0.801482,-1.095659 -0.786573,-0.970765 -0.348052,-0.652801 -0.06479,-0.699967 0.233594,-1.070585 0.365197,-1.519475 0.350356,-1.224485 0.566805,-0.786709 0.601162,-0.809953 0.262869,-0.764617 -0.07244,-0.741576 -0.404909,-0.740763 -0.214212,-0.237727 -0.190968,-0.06763 v 0 m -12.435477,0.174094 -7.45e-4,0.484264 -0.118186,0.917839 -0.262801,0.702203 -0.711759,0.746049 -1.112194,0.911603 -1.269686,0.893104 -1.184028,0.690344 -1.569216,0.609972 -1.819616,0.444417 -1.304857,0.154374 -2.94062,0.06838 -3.073241,0.0742 -0.760686,0.117711 0.240573,0.43737 0.425849,0.706675 0.02941,-0.0021 0.71474,-0.01118 -0.0018,-0.04622 0.512726,0.0679 1.132999,0.101176 1.60188,-0.04351 1.765538,-0.169011 1.624175,-0.27527 1.866376,-0.515234 1.540686,-0.619392 1.739583,-1.104537 2.169633,-1.784919 0.819102,-0.672047 -0.233322,0.392711 -0.726396,0.802905 -1.903444,1.770553 -1.002209,0.739746 -1.07167,0.590659 -1.032161,0.471117 -0.995839,0.343105 -2.378153,0.443333 -2.211513,0.372652 -1.035889,0.192594 -0.02697,0.0042 h -0.0045 l -0.287875,0.03849 -0.371567,0.02277 -0.425849,0.05462 -0.877584,0.09352 0.187376,0.218888 0.847496,0.941286 0.468203,0.444417 0.638773,-0.513743 0.304682,-0.253178 0.315117,-0.306308 0.469287,-0.287604 1.718169,-0.631793 1.32993,-0.278049 -0.24308,0.226953 -0.710132,0.32989 -1.111721,0.501003 -0.838889,0.54783 -0.311661,0.281911 -0.03327,0.593911 -0.03294,0.593912 0.231493,0.164945 1.402915,0.777425 0.03395,-0.380309 0.06784,-0.471389 0.230137,-0.450584 0.419614,-0.468067 0.636266,-0.524112 1.028367,-0.727548 2.096444,-1.174744 1.62404,-0.926783 0.870741,-0.607058 1.421213,-1.302621 1.620245,-1.678592 0.822964,-0.847496 -0.861456,1.404338 -1.023623,1.238581 -1.237293,1.286288 -1.169187,0.94359 -2.018309,1.213642 -1.652163,1.002615 -1.918421,1.570979 -0.213805,0.354083 0.330094,-0.148139 0.252161,-0.135195 -0.174094,0.370144 -0.429643,0.57785 -0.717926,0.873045 -0.600078,0.67164 -0.491109,0.32535 -0.958024,0.09169 -1.232481,-0.03388 -1.025521,-0.240573 -0.990552,-0.366349 -0.297362,-0.08478 0.138719,0.368111 0.169079,0.333008 -0.103277,0.02311 -0.743474,-0.02799 0.218617,0.14536 0.666693,0.153019 0.510287,0.112967 0.0574,0.04859 -0.03639,0.05902 -1.466278,0.753299 -0.2155,0.11656 -0.0654,0.127877 0.08545,0.112967 0.241522,0.01999 0.862676,-0.231357 0.639451,-0.231493 -0.141498,0.207639 -0.497953,0.913704 0.142514,0.06824 0.611463,-0.487788 0.479656,-0.472744 0.353609,-0.23461 0.352321,-0.04622 0.476065,0.09271 0.327518,0.109377 0.09128,0.13201 -0.556098,0.491244 -0.538342,0.443401 -0.0839,0.161895 0.02731,0.1375 0.140074,0.06939 0.292416,-0.05415 1.214455,-0.532854 1.246238,-0.692173 0.921159,-1.004174 1.630274,-1.678728 2.225,-1.889755 2.003129,-1.624379 1.558712,-1.479086 1.1166,-1.19487 0.960803,-1.182605 0.312,-0.352322 -0.0984,0.438454 -0.371161,0.742457 -0.683161,0.999091 -0.847496,1.057303 -0.864031,0.917093 -1.715932,1.474546 -1.701634,1.296589 -1.062114,0.90808 -0.68926,0.764752 1.176709,1.193854 0.723482,-1.047815 0.220311,-0.336532 0.233593,-0.431677 0.350153,-0.369534 1.825919,-1.783225 1.625598,-1.528624 0.0091,0.103684 -2.345286,3.008184 -0.941692,1.222519 -0.165284,0.538953 -6.78e-4,0.754316 0.02202,0.556843 0.188799,0.01681 0.226682,-0.02446 0.187782,-0.117915 0.532786,-0.783185 0.822625,-1.288728 1.353378,-2.102883 0.951587,-1.73179 1.22584,-2.587079 1.168441,-2.74606 0.80033,-1.888942 0.441842,-0.836315 0.04791,-0.06065 -0.06424,-0.08227 -0.589167,-0.325282 -1.200292,-0.706473 -0.747133,-0.63613 -0.216042,-0.286113 v 0 m 18.727793,0.879347 -0.17267,0.334431 -0.309628,1.314683 -0.2668,2.571424 -0.135534,1.486947 -0.132688,1.487286 -0.376853,2.862824 -0.05882,0.401656 -0.236372,0.633894 -1.010341,2.147406 0.399623,2.180001 0.157694,1.009528 0.08898,0.175178 0.127334,0.06058 0.189816,0.03781 0.228985,-1.411997 0.22763,-0.991433 0.50107,-1.723523 0.28652,-1.316851 0.297362,-1.718778 0.253043,-2.234623 0.07156,-3.879127 -0.01342,-2.761444 -0.04059,-0.546068 -0.0759,-0.119812 v 0 m -31.622053,0.05428 -0.01999,0.04445 0.04906,-0.02555 -0.02907,-0.01891 v 0 m 23.398712,13.059138 -0.0616,0.413922 -0.06201,0.904895 -0.167385,1.454419 -0.245859,1.718372 -0.168063,1.097557 0.0039,0.270458 0.194356,0.07095 2.137579,0.791723 2.719293,1.186197 0.879753,0.563145 0.242336,0.268764 0.08505,0.237592 -0.21733,0.34568 -0.646973,0.439131 -0.85373,0.593437 -0.79396,0.787726 -0.621222,0.867352 -0.480876,1.092 -0.55115,1.831882 -0.907741,3.073579 -0.28015,0.75967 -0.494564,1.173049 -0.504527,0.831503 -0.448009,0.327316 -0.843159,0.252094 -0.8334,0.246672 -0.426662,0.319861 -0.297227,0.438454 -0.119406,0.477758 0.0618,0.461494 0.246266,0.391695 0.228714,0.322571 0.05489,0.385595 -0.06872,0.51232 -0.480673,1.281477 -0.287671,0.675639 -0.153425,0.632945 -0.02704,0.647176 0.09135,0.71901 0.17965,0.445908 0.462918,-0.350356 0.579612,-0.702068 0.996991,-1.855465 2.511248,-4.726082 0.562806,-0.925699 2.114471,-3.315169 3.008184,-4.318802 2.136766,-3.138364 0.436421,-0.852579 0.152069,-0.60611 -0.08295,-0.62156 -0.498427,-0.797416 -1.979818,-2.065272 -2.544386,-2.296087 -0.689869,-0.562061 -0.500393,-0.400978 -0.694139,-0.53265 -1.805927,-1.202596 -0.24796,-0.04168 v 0 m -0.762042,6.574973 -0.118796,0.04127 -0.09935,0.172332 -0.535429,2.16455 -0.271746,1.090848 -0.359708,1.387872 -0.257041,0.991365 -0.267206,1.090848 -1.065977,4.510311 -0.884565,4.078228 -0.05259,0.136212 -0.13445,0.313762 -0.274525,0.941964 -0.429712,1.883927 -0.329212,1.49291 -0.268562,1.618957 -0.181751,2.354232 0.04025,1.854109 0.103683,0.380174 0.239422,-0.22702 0.368179,-0.632268 0.735748,-1.023284 0.447873,-0.521129 -0.200998,-0.409992 -0.295871,-0.832858 -0.0967,-1.147298 0.07177,-1.289609 0.232915,-1.185925 0.201811,-1.135778 -0.07786,-1.110026 -0.07949,-1.035482 0.234067,-0.66954 0.524179,-0.572632 0.765566,-0.438454 0.958363,-0.264969 0.486094,-0.14841 0.05116,-0.651243 0.145971,-1.544413 0.281911,-1.733416 0.402401,-1.768452 0.608075,-3.093978 0.476132,-3.085981 0.164268,-1.228821 -0.07935,-0.175179 -0.528584,-0.244029 -0.582391,-0.276626 -0.06797,-0.05706 v 0 m 19.482177,1.05439 -0.83523,0.307527 -0.621154,0.258599 -0.494903,0.0124 -0.867487,-0.176805 -0.578122,-0.188596 -0.05042,0.03761 0.01816,0.121168 0.468948,1.661718 0.190968,0.576631 -0.423206,-0.377395 -0.557046,-0.487449 -0.12442,-0.0187 -3.39e-4,0.14265 0.357878,0.644398 1.058998,1.812229 0.547762,1.322815 0.18148,0.592692 0.0024,0.206351 -0.448619,-0.842211 -0.663643,-1.111517 -0.458987,-0.397657 -0.316676,-0.116086 0.396031,0.701052 0.544712,0.954026 0.198084,0.555013 -0.368789,-0.433574 -0.605432,-0.68533 -0.784811,-0.439538 -0.600621,-0.211094 0.792198,1.034127 0.913841,1.09471 0.621018,0.937491 0.338361,0.463934 0.486365,0.181819 1.078243,0.03748 0.70898,-0.0494 0.494294,-0.174026 0.400368,-0.226342 0.148072,-0.361334 0.858677,-2.499321 0.301835,-0.876365 0.07604,-0.520926 -0.06872,-0.477149 -0.301089,0.42917 -0.946233,1.52022 0.07739,-0.643991 0.09948,-0.719687 -0.04154,-0.03226 -0.103142,0.120964 -0.281166,0.539223 -0.564907,2.135818 -0.07143,0.276693 -0.04574,-0.161014 0.01179,-0.764617 0.11988,-1.650605 0.251688,-1.125341 0.461901,-1.811959 -0.03321,-0.13384 -0.09847,-0.0286 -0.386612,0.257719 -0.340055,0.230069 -0.09244,0.06933 0.04269,0.05428 -0.03395,0.08437 -0.115543,0.22973 -0.06587,0.162845 -0.27073,1.745411 -0.06302,0.531091 -0.05638,-0.677129 0.07793,-1.605404 0.283809,-1.26623 0.226614,-0.710538 -0.05672,-0.04134 v 0 m -17.147734,0.06797 -0.08593,0.140549 -0.05625,0.537055 -0.302919,2.09841 -0.223768,1.239936 -0.102599,1.125273 0.0021,0.37787 0.09555,-0.219227 0.237118,-0.418801 0.354761,-0.738933 0.781084,-1.406507 0.827369,-1.066249 0.871622,-0.466102 0.082,-0.0841 -0.3366,-0.181684 -0.694071,-0.245859 -0.37299,-0.126047 -1.076482,-0.565585 v 0 m 6.534652,5.964865 -0.05882,0.551828 -0.399216,1.106367 -0.597029,1.314276 -0.652123,1.175557 -1.690384,2.842155 -1.273006,2.081807 -1.036906,1.718575 -0.574665,0.992111 -0.450042,0.726464 -0.415277,0.562468 -0.179312,0.164674 0.04547,-0.363232 0.316743,-1.28351 0.727278,-1.625057 1.247593,-2.179391 1.877828,-2.944483 2.093056,-3.225514 0.675978,-1.1864 0.196321,-0.34568 0.146513,-0.08302 v 0 m 11.88846,2.476619 -0.607193,0.179312 -1.062589,0.233119 -1.248068,0.0047 -0.591133,0.01959 -0.177143,0.598384 -0.110664,0.779322 0.04296,0.210078 0.204928,0.137567 0.644398,0.210079 1.034669,0.06031 1.174744,-0.197202 0.777086,-0.260904 0.434184,-0.289365 0.17057,-0.281912 -0.158982,-0.430999 -0.288214,-0.655444 -0.102802,-0.224987 -0.136755,-0.09162 v 0 m 0.95362,2.212869 -0.241997,0.142989 -0.914314,0.418801 -1.01915,0.318505 -0.278388,0.04676 0.04412,0.802363 0.106463,3.0502 0.131332,2.9743 0.432423,2.746603 0.708505,2.664605 1.275107,2.77642 0.909097,1.942207 0.27161,0.491312 0.519503,0.615326 1.715933,1.417689 0.402198,0.298175 -0.003,0.06167 -0.02941,0.0014 h 0.274389 l -0.449838,-0.527906 -0.558063,-0.718332 -0.503442,-0.923667 -0.504662,-1.249626 -0.561993,-1.697567 -1.057574,-3.144397 -0.424426,-1.156785 -0.267206,-0.788132 -0.487449,-1.646742 -0.371567,-1.856143 -0.299802,-1.982867 -0.45072,-3.81258 0.115882,0.388306 0.260971,1.34179 0.193272,0.991433 0.243759,1.345178 0.19788,0.932476 0.296617,1.166951 1.023623,3.528636 1.290422,3.470356 0.733986,1.769401 0.261988,1.01854 0.132417,0.574665 0.116898,-0.185004 0.152748,-0.69258 0.03415,-1.280122 -0.198422,-1.381772 -0.629286,-1.751781 -0.862879,-2.283076 0.0024,0.0014 0.153764,0.277846 0.794231,1.585751 1.332506,2.773032 0.245046,0.857933 0.09284,0.847767 0.09216,0.743406 0.166708,-0.229053 0.159252,-0.552303 0.04269,-1.23675 -0.146377,-1.253693 -0.55027,-1.292997 -0.794773,-1.284866 -0.762042,-1.035482 -0.590387,-0.731207 -0.317286,-0.405248 -0.490295,-0.650565 -0.70051,-1.700278 -0.647379,-1.921876 -0.149766,-0.729175 -0.03253,-0.258871 0.02501,-0.0034 1.102504,2.655795 1.036905,2.008619 0.644669,0.834891 0.658358,0.855899 0.488195,0.56179 0.651988,0.546881 0.719687,0.461494 0.693258,0.306986 0.546881,0.140278 -0.300208,-0.38153 -2.044197,-2.548045 -2.110811,-2.865195 -0.718129,-1.257081 -0.800059,-1.644031 -0.63674,-1.494266 -0.228172,-0.810495 0.695494,1.240139 1.036973,1.896125 0.870537,1.209644 0.942031,0.670217 0.993874,0.571955 1.23614,0.571277 1.358054,0.33748 0.704101,-0.02846 L 71.27263,84.00305 70.85925,83.870904 69.772265,83.399922 68.587695,82.545379 67.342948,81.33709 66.075973,79.808941 65.133942,78.453597 64.314163,77.165344 63.785714,76.33994 63.685216,76.2593 h -3.39e-4 v 0 m -4.840405,0.58212 -0.518825,0.907402 -0.684855,1.513241 -1.207476,3.296872 -0.240234,0.727142 -10e-4,1.387871 0.02419,1.251659 0.126725,0.691225 0.245114,0.727142 0.07956,0.0454 0.01681,-0.520452 0.07034,-1.242172 0.170231,-1.118158 0.150579,-0.693936 0.335447,-0.991433 0.696918,-2.048601 0.495852,-1.388549 0.561722,-1.470548 0.306782,-0.627524 0.09786,-0.10165 -0.03233,0.08742 -0.197203,0.628202 -0.527025,1.61828 -0.431812,1.520017 -0.0018,0.279201 0.1047,-0.115205 0.02277,0.406603 -0.20974,1.377707 -0.243419,1.599305 -0.08017,1.649452 -0.0039,1.500365 0.10287,1.181182 0.228714,0.98669 0.373465,0.915534 0.721314,1.141199 0.637079,0.725109 -0.156542,-0.557724 -0.448416,-1.713154 -0.210281,-2.457237 0.04025,-2.049279 0.400978,-3.754978 0.240573,-1.675882 0.104701,-0.790843 0.03646,-0.125369 0.03043,0.03117 -0.1478,2.601581 -0.06228,1.784309 0.106055,3.092893 0.322165,2.56431 0.541595,2.051989 0.354084,0.839635 0.410262,0.717655 0.838754,1.000921 0.393931,0.370686 0.186292,0.08742 -0.305698,-0.697325 -0.618443,-1.370252 -0.4413,-1.387193 -0.242674,-1.02464 -0.08545,-0.429643 -0.175314,-1.336369 0.01952,-0.724431 -0.04588,-1.045647 -0.01125,-0.38424 -0.08979,-2.292563 0.04988,-4.411642 0.05184,-2.429453 h -0.494836 l -0.771122,-0.06099 -0.673063,-0.174839 -0.336871,-0.09487 v 0 m -18.164377,9.778123 -0.624745,0.597029 -0.712301,0.597028 -0.119406,0.611938 -0.158982,0.82947 -0.648938,0.766446 -0.516386,0.571955 -0.269781,0.496734 -0.0513,0.508931 0.138854,0.610582 0.132146,0.685126 0.05028,1.677237 0.03185,1.900869 h 0.388713 0.388712 v -1.624379 l 0.06831,-1.751103 0.23827,-0.121981 0.345883,0.161963 0.381868,0.553658 0.359098,1.02735 0.433371,1.146621 0.243691,0.364587 0.261175,0.224987 1.001869,0.04879 1.150077,-0.109105 0.337684,-0.180938 0.300615,-0.293432 0.215567,-0.346968 0.08254,-0.340869 -0.200658,-0.578731 -0.460885,-0.639722 -0.285367,-0.251416 -0.228375,-0.06573 -0.29289,0.136212 -0.02772,0.122658 0.07902,0.115882 0.171925,0.08742 0.159863,0.215499 0.09365,0.367298 -0.13689,0.367298 -0.164742,0.138923 -0.248502,0.03253 -0.44889,-0.0881 -0.339716,-0.273102 -0.318167,-0.747472 -0.289773,-1.730773 -0.364587,-3.569296 -0.110664,-1.770078 -0.03537,-0.481825 v 0 m -20.69277,1.983545 -0.437708,0.101651 0.340733,-0.06031 0.09698,-0.04134 v 0 m 32.101846,1.625734 -0.06797,0.04337 -0.681805,0.357811 -0.995974,0.291398 -0.752351,0.09759 -0.706202,-0.02304 -0.676045,-0.145021 -0.661746,-0.270391 -0.667575,-0.281912 -0.0305,0.06573 0.147597,0.203979 0.683025,0.463528 1.009799,0.34629 1.125748,0.105717 0.909232,-0.199913 0.743948,-0.440487 0.526212,-0.470304 0.0946,-0.144344 v 0" />
    <path
       d="m 69.047281,43.093467 -0.542138,-0.787048 -0.782507,-0.721178 -0.376853,-0.13113 -0.388238,0.01735 -0.353948,0.155186 -0.274118,0.282522 -0.149495,0.176127 -0.07719,-0.120016 -0.214416,-0.379699 -0.380173,-0.274525 -0.473693,-0.134857 -0.495175,0.03944 -0.195711,0.02189 -0.163997,-0.135195 -0.337412,-0.216313 -0.43493,-0.05625 -0.480672,0.101245 -0.474845,0.256295 -0.276964,0.17877 -0.01037,-0.125437 0.211773,-0.41216 0.398403,-0.497886 0.478572,-0.466305 0.452074,-0.317625 0.604077,-0.253585 0.512726,-0.06072 0.5296,0.140413 0.654631,0.349747 0.95301,0.425306 0.574597,0.09501 -0.145902,-0.22458 -0.500393,-1.394445 0.10531,-0.03829 0.247215,0.192391 0.270797,0.187173 0.263005,0.02108 0.223631,-0.1375 0.153154,-0.288756 0.160608,-0.430524 0.06777,-0.06052 0.06438,0.05171 0.30563,1.465194 0.113171,0.184191 0.221599,-0.14265 0.716299,-1.207746 0.311051,-0.518894 0.377463,-0.423138 0.435065,-0.324604 0.484535,-0.223225 0.525196,-0.119067 0.558401,-0.01193 0.582798,0.09792 0.599062,0.210688 0.293431,0.130384 -0.365942,0.0778 -0.502833,0.163929 -0.358488,0.248841 -0.215499,0.335989 -0.07658,0.425375 -0.0047,0.305359 -0.332059,0.02406 -0.383562,0.0881 -0.271747,0.210959 -0.173483,0.349815 -0.08742,0.504797 -0.03388,0.397929 -0.342902,-0.0248 -0.65463,0.09623 -0.477759,0.431881 -0.335447,0.818695 -0.226342,1.256742 -0.0366,0.211094 -0.03998,-0.06709 v 6.8e-5"
       style="fill:#000000;stroke-width:0.222059"
       id="path1-8" />
    <path
       d="M 7.4992493,27.146838 7.6723267,26.206907 7.6289557,25.14364 7.4552007,24.784474 7.1684101,24.522215 6.8084309,24.381734 6.4147715,24.38763 6.1845529,24.406469 6.2148313,24.267004 6.3317093,23.846983 6.2570367,23.383998 6.0173984,22.953609 5.6393661,22.631376 5.4855211,22.508514 5.4651639,22.296945 5.3795265,21.905387 5.1117717,21.55808 4.7002353,21.28979 4.1832599,21.135213 l -0.3222463,-0.06939 0.081388,-0.09603 0.4412049,-0.141701 0.6337584,-0.07034 0.6681097,0.0087 0.5442652,0.09508 0.6064754,0.247825 0.4054509,0.31959 0.2752702,0.473692 0.2155673,0.710268 0.3730582,0.974627 0.3391747,0.473489 0.055637,-0.261988 0.6321998,-1.339824 0.1015152,0.04737 0.038763,0.310848 0.059093,0.323792 0.1709088,0.200726 0.2554144,0.06092 0.3125423,-0.09576 0.418123,-0.190765 0.09067,0.005 0.009,0.08213 -0.8200507,1.252133 -0.050216,0.210214 0.2574475,0.05584 1.3605612,-0.34751 0.586864,-0.146919 0.565991,-0.03246 0.537191,0.07813 0.500528,0.184801 0.45587,0.287536 0.403282,0.386409 0.342766,0.481282 0.274389,0.572361 0.115543,0.29987 -0.314033,-0.204047 -0.47132,-0.239421 -0.429237,-0.07732 -0.390339,0.08478 -0.354558,0.247011 -0.219091,0.212789 -0.252162,-0.21821 -0.333143,-0.208587 -0.341479,-0.04303 -0.370009,0.124691 -0.419072,0.294787 -0.304952,0.257787 -0.224851,-0.259955 -0.530956,-0.394812 -0.6436529,-0.03287 -0.8161199,0.341682 -1.0484257,0.728836 -0.1753137,0.123201 0.01911,-0.0757 6.77e-5,6.8e-5"
       style="fill:#000000;stroke-width:0.222059"
       id="path1-8-2" />
    <path
       d="m 22.010231,108.12758 0.173077,-0.93993 -0.04344,-1.06327 -0.173755,-0.35917 -0.286723,-0.26226 -0.360047,-0.14027 -0.393592,0.006 -0.230205,0.019 0.03022,-0.1396 0.116899,-0.42016 -0.07468,-0.46285 -0.239624,-0.431 -0.378006,-0.32189 -0.153899,-0.12266 -0.02033,-0.21143 -0.08566,-0.3917 -0.267748,-0.34764 -0.41155,-0.26836 -0.516928,-0.15451 -0.3223,-0.0691 0.08139,-0.0962 0.441232,-0.14163 0.633759,-0.0705 0.668116,0.009 0.544238,0.0949 0.606448,0.24803 0.405519,0.31986 0.27527,0.47369 0.215568,0.7102 0.373058,0.97449 0.339175,0.4737 0.05564,-0.26226 0.6322,-1.33976 0.101515,0.0474 0.03876,0.31105 0.05909,0.32393 0.170909,0.20059 0.255414,0.061 0.312542,-0.0962 0.418056,-0.19043 0.09067,0.005 0.009,0.082 -0.819983,1.25233 -0.05028,0.21008 0.257515,0.0563 1.360561,-0.34765 0.586864,-0.14705 0.565991,-0.0325 0.53719,0.0779 0.500529,0.18501 0.455869,0.28733 0.403283,0.38627 0.342766,0.48115 0.274389,0.57263 0.115543,0.30021 -0.314101,-0.20398 -0.471252,-0.2399 -0.429238,-0.0772 -0.390338,0.0847 -0.354558,0.24735 -0.219091,0.21279 -0.25223,-0.21821 -0.333143,-0.20873 -0.341411,-0.0427 -0.370077,0.12469 -0.419004,0.29479 -0.304952,0.25751 -0.224919,-0.25954 -0.530888,-0.39509 -0.643653,-0.0325 -0.81612,0.34154 -1.048425,0.7285 -0.175314,0.12334 0.01911,-0.0759 h 6.8e-5"
       style="fill:#000000;stroke-width:0.222059"
       id="path1-8-2-7" />
    <path
       d="m 50.786606,24.772209 -0.542272,-0.787048 -0.782508,-0.721178 -0.376853,-0.13113 -0.38817,0.01735 -0.353948,0.155186 -0.274186,0.282522 -0.149427,0.176126 -0.07725,-0.120015 -0.214348,-0.379632 -0.380173,-0.274592 -0.473761,-0.134857 -0.495174,0.03951 -0.195644,0.02189 -0.163997,-0.135263 -0.337412,-0.216313 -0.43493,-0.05625 -0.48074,0.101312 -0.474845,0.256228 -0.276964,0.178837 -0.01037,-0.125504 0.211772,-0.41216 0.398471,-0.497886 0.478572,-0.466305 0.452074,-0.317625 0.604009,-0.253585 0.512726,-0.06072 0.529601,0.140413 0.65463,0.349747 0.95301,0.425374 0.574598,0.09494 -0.145903,-0.22458 -0.500393,-1.394445 0.105378,-0.03829 0.247147,0.192391 0.27073,0.187173 0.262801,0.02108 0.223632,-0.1375 0.153357,-0.288756 0.160743,-0.430524 0.06763,-0.06052 0.06451,0.05171 0.305562,1.465194 0.113104,0.184191 0.221531,-0.14265 0.716299,-1.207679 0.311051,-0.518893 0.377327,-0.423206 0.435065,-0.324604 0.484603,-0.223225 0.52567,-0.119 0.558402,-0.01199 0.582729,0.09792 0.598723,0.210688 0.293771,0.130384 -0.366349,0.0778 -0.502629,0.163929 -0.35815,0.248841 -0.216041,0.335989 -0.07604,0.425375 -0.0047,0.305359 -0.332601,0.02406 -0.383088,0.0881 -0.271882,0.210959 -0.173484,0.349815 -0.08783,0.504797 -0.03334,0.397929 -0.342834,-0.0248 -0.654563,0.09623 -0.478437,0.431881 -0.335447,0.818695 -0.226003,1.256742 -0.0368,0.211094 -0.04005,-0.06709 3.38e-4,6.8e-5"
       style="fill:#000000;stroke-width:0.222059"
       id="path1-8-0" />
    <path
       d="m 34.132353,21.736036 0.173077,-0.93993 -0.04337,-1.063267 -0.173755,-0.359166 -0.286791,-0.262259 -0.359979,-0.140481 -0.393659,0.0059 -0.230205,0.01884 0.03029,-0.139465 0.116898,-0.420021 -0.07468,-0.462985 -0.239693,-0.430389 -0.378005,-0.322233 -0.153899,-0.122862 -0.02033,-0.211569 -0.08566,-0.391558 -0.267748,-0.347307 -0.41155,-0.26829 -0.516928,-0.154577 -0.3223,-0.06939 0.08146,-0.09603 0.441232,-0.141701 0.63369,-0.07034 0.668117,0.0087 0.544306,0.09508 0.606448,0.247825 0.405451,0.31959 0.27527,0.473692 0.215567,0.710268 0.373059,0.974627 0.339174,0.473489 0.05564,-0.261988 0.6322,-1.339824 0.101515,0.04737 0.03876,0.310848 0.05909,0.323791 0.170909,0.200727 0.255414,0.06092 0.312542,-0.09576 0.418123,-0.190764 0.09067,0.005 0.009,0.0822 -0.82005,1.252066 -0.05028,0.210214 0.257516,0.05584 1.360561,-0.34751 0.586863,-0.146919 0.565992,-0.03246 0.53719,0.07813 0.500528,0.184801 0.45587,0.287536 0.403282,0.386408 0.342767,0.481283 0.274389,0.572361 0.115543,0.29987 -0.314101,-0.204047 -0.471253,-0.239421 -0.429237,-0.07732 -0.390339,0.08478 -0.354558,0.247011 -0.219091,0.212789 -0.252229,-0.21821 -0.333144,-0.208587 -0.34141,-0.04303 -0.370009,0.124691 -0.419072,0.294787 -0.304953,0.257786 -0.224851,-0.259954 -0.530956,-0.394812 -0.643652,-0.03287 -0.81612,0.341682 -1.048426,0.728836 -0.175313,0.123201 0.01911,-0.0757 6.8e-5,6.7e-5"
       style="fill:#000000;stroke-width:0.222059"
       id="path1-8-2-0" />
    <path
       d="m 64.424408,19.46543 -0.542205,-0.787048 -0.782575,-0.721178 -0.376853,-0.131129 -0.38817,0.01735 -0.353948,0.155187 -0.274186,0.282521 -0.149427,0.176127 -0.07725,-0.120016 -0.214348,-0.379631 -0.380174,-0.274593 -0.47376,-0.134856 -0.495174,0.03951 -0.195644,0.02189 -0.163997,-0.135264 -0.337412,-0.216312 -0.43493,-0.05625 -0.48074,0.101312 -0.474845,0.256227 -0.276964,0.178838 -0.01037,-0.125505 0.211772,-0.41216 0.398471,-0.497817 0.478571,-0.466374 0.452075,-0.317625 0.604009,-0.253584 0.512726,-0.06072 0.529601,0.140414 0.654698,0.349746 0.952942,0.425375 0.574598,0.09494 -0.145903,-0.224581 -0.500393,-1.394445 0.105378,-0.03829 0.247147,0.192391 0.27073,0.187173 0.262801,0.02107 0.223631,-0.137499 0.153358,-0.288756 0.160743,-0.430525 0.06763,-0.06052 0.06451,0.05171 0.305562,1.465194 0.113104,0.184191 0.221531,-0.14265 0.716366,-1.207678 0.311051,-0.518893 0.37726,-0.423206 0.435133,-0.324612 0.484603,-0.223238 0.52567,-0.119013 0.558672,-0.01195 0.58212,0.09795 0.599062,0.210682 0.293432,0.130357 -0.365943,0.07782 -0.502832,0.163895 -0.358488,0.248841 -0.2155,0.33599 -0.0759,0.425374 -0.0047,0.305359 -0.332872,0.02406 -0.383088,0.0881 -0.271882,0.210959 -0.173484,0.349814 -0.08783,0.504798 -0.03334,0.397928 -0.342834,-0.0248 -0.654563,0.09623 -0.478369,0.43188 -0.335515,0.818695 -0.226004,1.256742 -0.0368,0.211095 -0.04005,-0.06709 3.38e-4,6.8e-5"
       style="fill:#000000;stroke-width:0.222059"
       id="path1-8-1" />
    <path
       d="m 43.199599,16.544462 0.173077,-0.93993 -0.04337,-1.063267 -0.173755,-0.359234 -0.286723,-0.262191 -0.360047,-0.140549 -0.393659,0.0059 -0.230205,0.01884 0.03029,-0.139438 0.116898,-0.420061 -0.07468,-0.462972 -0.239693,-0.430362 -0.378005,-0.322212 -0.153832,-0.122889 -0.0204,-0.211576 -0.08566,-0.391559 -0.26768,-0.347313 -0.41155,-0.268304 -0.516996,-0.154557 -0.322233,-0.06941 0.08139,-0.09602 0.441231,-0.141722 0.633691,-0.07028 0.668117,0.0087 0.544305,0.09507 0.606449,0.24781 0.405451,0.319584 0.27527,0.47374 0.215567,0.710254 0.373058,0.974613 0.339175,0.473476 0.05564,-0.261961 0.6322,-1.339851 0.101515,0.04743 0.03876,0.310807 0.05909,0.323805 0.170908,0.200726 0.255415,0.06088 0.312542,-0.09575 0.418123,-0.190764 0.09067,0.005 0.009,0.08216 -0.819983,1.252141 -0.05028,0.210214 0.257447,0.05577 1.360562,-0.347462 0.586863,-0.146954 0.566059,-0.03246 0.537191,0.07813 0.50046,0.184794 0.45587,0.287536 0.403282,0.386408 0.342834,0.481283 0.274389,0.572361 0.115543,0.299938 -0.3141,-0.204047 -0.471321,-0.239489 -0.429237,-0.07732 -0.390271,0.08485 -0.354558,0.247011 -0.219091,0.212721 -0.25223,-0.218142 -0.333143,-0.208588 -0.341479,-0.0431 -0.370008,0.124692 -0.419072,0.294855 -0.304953,0.257786 -0.224851,-0.259955 -0.530888,-0.394811 -0.643652,-0.03294 -0.81612,0.341682 -1.048494,0.728836 -0.175313,0.123201 0.01918,-0.07563 v 6.8e-5"
       style="fill:#000000;stroke-width:0.222059"
       id="path1-8-2-3" />
    <path
       d="m 25.699204,18.674587 -0.778712,-0.554132 -0.982014,-0.409991 -0.398945,0.0056 -0.358828,0.149087 -0.279539,0.266935 -0.161015,0.359234 -0.08024,0.216584 -0.113578,-0.08634 -0.331314,-0.28347 -0.451126,-0.128012 -0.491311,0.03537 -0.451804,0.206418 -0.176398,0.08749 -0.20032,-0.07095 -0.391084,-0.08789 -0.427882,0.09589 -0.417107,0.259616 -0.358623,0.403215 -0.199033,0.262733 -0.05265,-0.114391 0.05801,-0.459732 0.204115,-0.604077 0.290246,-0.601908 0.316134,-0.453091 0.480876,-0.444891 0.461088,-0.232442 0.545661,-0.0492 0.734799,0.104768 1.040971,0.0738 0.57243,-0.107343 -0.213873,-0.161083 -0.947182,-1.139234 0.08593,-0.07197 0.29804,0.09623 0.318438,0.08329 0.254126,-0.07007 0.163116,-0.205741 0.04534,-0.323724 0.0038,-0.459529 0.0429,-0.08003 0.07827,0.0265 0.788335,1.272328 0.169283,0.134382 0.159388,-0.209739 0.260022,-1.379943 0.114866,-0.593986 0.209807,-0.526686 0.297837,-0.453857 0.378954,-0.375505 0.453294,-0.291615 0.520587,-0.202204 0.581104,-0.107269 0.634707,-0.0068 0.320606,0.02202 -0.317624,0.198436 -0.416226,0.325939 -0.251484,0.356327 -0.0881,0.389593 0.07407,0.425741 0.100228,0.288478 -0.304343,0.136374 -0.329822,0.213806 -0.183378,0.291195 -0.04337,0.388103 0.09013,0.504391 0.1047,0.385324 -0.330636,0.09393 -0.582187,0.314304 -0.301835,0.569447 -0.03524,0.884023 0.217465,1.258301 0.03761,0.210891 -0.06052,-0.04933 6.8e-5,6.7e-5"
       style="fill:#000000;stroke-width:0.222059"
       id="path1-8-08" />
    <path
       d="M 9.9469314,15.289211 9.7880851,14.346773 9.3836507,13.362435 9.0975378,13.084319 8.7383719,12.935976 8.3520313,12.927065 7.9841234,13.067241 7.7742485,13.163687 7.7550026,13.022298 7.7211868,12.587599 7.4926759,12.178089 7.1202954,11.855646 6.6548367,11.682155 6.4682398,11.619301 6.3767474,11.427445 6.1623524,11.088786 5.7919574,10.853993 5.3134738,10.742624 l -0.538654,0.03158 -0.3265496,0.045 0.043635,-0.118071 0.3661256,-0.284073 0.5715008,-0.282792 0.6307767,-0.2203788 0.5439602,-0.096819 0.6546104,0.025447 0.4903632,0.1616238 0.4206308,0.351041 0.4455013,0.593681 0.6839061,0.788241 0.4806725,0.328921 -0.037272,-0.265193 0.1358054,-1.475271 0.1116125,0.0098 0.1427183,0.278808 0.1663,0.284073 0.229189,0.130167 0.260836,-0.03015 0.260971,-0.196877 0.327654,-0.32226 0.08695,-0.02626 0.0366,0.07411 -0.34236,1.457075 0.02467,0.21472 0.261107,-0.03561 1.159564,-0.791852 0.501206,-0.338816 0.52079,-0.224085 0.531566,-0.110325 0.533531,0.0025 0.526686,0.114302 0.5111,0.225157 0.486772,0.335047 0.453565,0.443977 0.211163,0.242295 -0.364926,-0.08432 -0.524789,-0.06382 -0.42978,0.07414 -0.337751,0.213202 -0.248706,0.353386 -0.133094,0.274863 -0.311661,-0.118769 -0.384376,-0.08203 -0.335583,0.07627 -0.305087,0.243745 -0.292958,0.42036 -0.198354,0.346541 -0.300209,-0.167358 -0.633894,-0.189423 -0.616139,0.189233 -0.650023,0.600228 -0.735951,1.043478 -0.1225909,0.175721 -0.00793,-0.07766 6.78e-5,6.8e-5"
       style="fill:#000000;stroke-width:0.222059"
       id="path1-8-2-32" />
    <path
       d="m 54.733569,14.180202 -0.24037,-0.925029 -0.488669,-0.945311 -0.309289,-0.252121 -0.370687,-0.116478 -0.38573,0.0248 -0.354219,0.171701 -0.200659,0.114378 -0.03151,-0.139181 -0.07156,-0.430097 -0.263343,-0.388035 -0.399081,-0.288763 -0.478842,-0.132268 -0.191375,-0.04635 -0.107817,-0.183147 -0.243081,-0.318689 -0.389458,-0.201614 -0.486365,-0.06924 -0.53387,0.07841 -0.321419,0.0733 0.03321,-0.121432 0.339987,-0.3149001 0.544645,-0.3315305 0.609159,-0.2745179 0.533463,-0.1438494 0.65436,-0.031708 0.502561,0.118274 0.449635,0.3130436 0.495581,0.5525937 0.74998,0.7256306 0.507508,0.285774 -0.06031,-0.260931 0.0068,-1.4814915 0.112087,6.78e-5 0.166504,0.2653152 0.190425,0.2685003 0.239693,0.1096879 0.257176,-0.05277 0.24281,-0.2188676 0.298311,-0.3495904 0.0843,-0.033734 0.0429,0.07064 -0.214009,1.4813623 0.0433,0.211759 0.256906,-0.05823 1.086239,-0.889912 0.46983,-0.38121 0.499241,-0.2686155 0.519909,-0.1562304 0.531702,-0.044035 0.534682,0.067957 0.528788,0.1797524 0.514081,0.2913514 0.490567,0.4027471 0.231425,0.222974 -0.37089,-0.05219 -0.528313,-0.01785 -0.421715,0.111314 -0.317896,0.241834 -0.216922,0.373709 -0.108699,0.285422 -0.32081,-0.09115 -0.390067,-0.04822 -0.327655,0.105236 -0.282656,0.269401 -0.255211,0.444289 -0.167453,0.36252 -0.313627,-0.140556 -0.647989,-0.133454 -0.597232,0.242207 -0.595267,0.654576 -0.642229,1.103683 -0.106801,0.18575 -0.01464,-0.07671 v 6.8e-5"
       style="fill:#000000;stroke-width:0.222059"
       id="path1-8-2-0-7-6" />
    <path
       d="m 69.245838,27.947303 -0.542137,-0.78698 -0.782711,-0.721178 -0.376717,-0.131129 -0.388103,0.01735 -0.353948,0.155187 -0.274118,0.282521 -0.149494,0.176127 -0.07719,-0.120016 -0.214347,-0.379699 -0.380174,-0.274525 -0.47376,-0.134856 -0.495175,0.03944 -0.195712,0.02189 -0.163996,-0.135196 -0.337413,-0.216312 -0.434929,-0.05631 -0.480673,0.101312 -0.474844,0.256295 -0.276965,0.17877 -0.01037,-0.125437 0.211772,-0.412228 0.398471,-0.497817 0.478504,-0.466306 0.452075,-0.317625 0.604076,-0.253584 0.512727,-0.06079 0.5296,0.140413 0.654631,0.349746 0.952941,0.425375 0.574666,0.09494 -0.145903,-0.224581 -0.500392,-1.394445 0.105378,-0.03829 0.247146,0.192459 0.270595,0.187173 0.263139,0.02107 0.223632,-0.137567 0.153154,-0.288688 0.160608,-0.430525 0.06777,-0.06058 0.06438,0.05171 0.30563,1.465261 0.113171,0.184191 0.221599,-0.14265 0.716299,-1.207746 0.311051,-0.518893 0.377463,-0.423206 0.435065,-0.324605 0.484535,-0.223225 0.525196,-0.118999 0.558401,-0.01193 0.582798,0.09792 0.599061,0.210688 0.293432,0.130384 -0.365943,0.0778 -0.502832,0.163929 -0.35781,0.248841 -0.216178,0.33599 -0.0759,0.425374 -0.0047,0.305359 -0.332736,0.02406 -0.382885,0.0881 -0.272424,0.210959 -0.172806,0.349814 -0.0881,0.504798 -0.03388,0.397928 -0.342224,-0.0248 -0.654631,0.09623 -0.478436,0.431812 -0.335447,0.818695 -0.226343,1.256742 -0.03659,0.211095 -0.03998,-0.06702 v 0"
       style="fill:#000000;stroke-width:0.222059"
       id="path1-8-1-5" />
    <path
       d="M 9.1522259,40.54183 8.6099531,39.754782 7.8274457,39.033604 7.4505925,38.902474 7.0624222,38.919823 6.7084473,39.07501 6.4342817,39.357531 6.2848212,39.533658 6.2076276,39.413642 5.9932462,39.03401 5.6130725,38.759418 5.1393123,38.624561 4.6441647,38.66407 4.4484871,38.685958 4.2844838,38.550695 3.9470575,38.334382 3.5121347,38.278136 3.0314148,38.379447 2.5565703,38.635675 2.279633,38.814513 2.269278,38.689008 l 0.2117724,-0.41216 0.398437,-0.497818 0.4785445,-0.466373 0.4520815,-0.317625 0.6040494,-0.253585 0.5127128,-0.06072 0.52958,0.140414 0.6546849,0.349746 0.9529757,0.425374 0.5745978,0.09494 -0.1459027,-0.22458 -0.5003927,-1.394445 0.1053779,-0.03829 0.2471468,0.19239 0.2707298,0.187173 0.2628011,0.02108 0.2236316,-0.1375 0.1533571,-0.288755 0.1607437,-0.430525 0.067632,-0.06052 0.064514,0.05171 0.3055622,1.465194 0.1131033,0.184191 0.2215309,-0.142582 0.7163666,-1.207746 0.3110514,-0.518894 0.37726,-0.423206 0.435133,-0.324604 0.484535,-0.223225 0.52567,-0.118999 0.558401,-0.01199 0.58273,0.09792 0.598723,0.210688 0.29377,0.130385 -0.366349,0.0778 -0.502629,0.163929 -0.358149,0.248841 -0.216042,0.33599 -0.07604,0.425374 -0.0047,0.305359 -0.332602,0.02406 -0.383087,0.0881 -0.271882,0.21096 -0.173484,0.349814 -0.08783,0.504797 -0.03334,0.397929 -0.342834,-0.0248 -0.654563,0.09623 -0.4783684,0.43188 -0.3355152,0.818695 -0.2260035,1.256742 -0.036798,0.211094 -0.04005,-0.06709 3.388e-4,6.8e-5"
       style="fill:#000000;stroke-width:0.222059"
       id="path1-8-0-6" />
    <path
       d="m 10.602511,106.79866 -0.542273,-0.78677 -0.7825073,-0.72172 -0.3768532,-0.1308 -0.3881703,0.017 -0.3539479,0.15518 -0.2741859,0.28259 -0.1494266,0.1762 -0.077187,-0.11995 -0.2144153,-0.3795 -0.3801737,-0.27445 -0.4737534,-0.13486 -0.4951543,0.0393 -0.1956777,0.0217 -0.1640033,-0.13486 -0.3374263,-0.21617 -0.4349228,-0.0562 -0.4807199,0.10097 -0.4748445,0.25616 -0.2769373,0.17891 -0.010355,-0.12537 0.2117724,-0.41203 0.398437,-0.49809 0.4785446,-0.46623 0.4520815,-0.31783 0.6040493,-0.25345 0.5127128,-0.061 0.5295868,0.14028 0.6546985,0.34968 0.9529418,0.42557 0.5745977,0.0949 -0.1458349,-0.22431 -0.5003927,-1.39465 0.1053102,-0.0379 0.2471468,0.19246 0.2707298,0.18704 0.262801,0.021 0.2236317,-0.13756 0.153357,-0.28869 0.1607437,-0.43032 0.067632,-0.0603 0.064514,0.0515 0.3055627,1.46512 0.113103,0.18433 0.221531,-0.14299 0.716367,-1.20761 0.311051,-0.5191 0.37726,-0.42286 0.435133,-0.32461 0.484535,-0.22363 0.52567,-0.11927 0.558401,-0.0115 0.58273,0.0976 0.598723,0.21075 0.29377,0.13079 -0.366349,0.0779 -0.502629,0.164 -0.358149,0.24871 -0.216042,0.33544 -0.07603,0.42558 -0.0047,0.30563 -0.332602,0.0237 -0.383087,0.0881 -0.271882,0.21143 -0.173484,0.34968 -0.08783,0.50486 -0.03334,0.3978 -0.342834,-0.0251 -0.654563,0.0962 -0.478368,0.43236 -0.335516,0.81862 -0.226003,1.25641 -0.03686,0.21143 -0.03998,-0.0671 h 3.39e-4"
       style="fill:#000000;stroke-width:0.222059"
       id="path1-8-20" />
    <path
       d="m 70.603892,59.41085 -0.542137,-0.78698 -0.782711,-0.721178 -0.376785,-0.13113 -0.387628,0.01735 -0.354422,0.155186 -0.27378,0.282522 -0.149697,0.176126 -0.07719,-0.120015 -0.214416,-0.3797 -0.380173,-0.274524 -0.473693,-0.134925 -0.495174,0.03951 -0.195712,0.02189 -0.163996,-0.135195 -0.337413,-0.216313 -0.43493,-0.05631 -0.48074,0.101311 -0.474844,0.256296 -0.276897,0.17877 -0.01037,-0.125437 0.211772,-0.412228 0.398403,-0.497818 0.478572,-0.466305 0.452074,-0.317625 0.604009,-0.253585 0.512726,-0.06079 0.529601,0.140414 0.654698,0.349746 0.952942,0.425374 0.574666,0.09494 -0.1457,-0.22458 -0.500799,-1.394445 0.105039,-0.03829 0.24735,0.192458 0.271069,0.187173 0.262936,0.02108 0.223632,-0.137568 0.153154,-0.288688 0.160608,-0.430524 0.06777,-0.06058 0.06438,0.05171 0.30563,1.465262 0.113171,0.184191 0.221599,-0.14265 0.716298,-1.207746 0.311052,-0.518894 0.377463,-0.423206 0.435065,-0.324604 0.484535,-0.223225 0.525196,-0.118999 0.558401,-0.01193 0.582798,0.09792 0.599061,0.210688 0.293432,0.130384 -0.365943,0.0778 -0.502832,0.163929 -0.358488,0.248841 -0.2155,0.335989 -0.0759,0.425375 -0.0047,0.305359 -0.332736,0.02406 -0.382885,0.0881 -0.272424,0.210959 -0.172806,0.349814 -0.0881,0.504798 -0.03388,0.397929 -0.342224,-0.0248 -0.654631,0.09623 -0.478436,0.431813 -0.335448,0.818695 -0.226342,1.256742 -0.03659,0.211094 -0.03998,-0.06702 v 0"
       style="fill:#000000;stroke-width:0.222059"
       id="path1-8-1-5-0" />
    <path
       d="M 5.7242987,95.25046 5.897376,94.31053 5.8539779,93.247263 5.6802433,92.888097 5.3934933,92.625838 5.0334532,92.48556 4.6398276,92.490982 4.409609,92.509957 4.4398806,92.370356 4.5567586,91.950878 4.482086,91.488028 4.2424478,91.057029 3.8644222,90.735135 3.7105772,90.612476 3.69022,90.400365 3.6045758,90.008671 3.336821,89.661703 2.9252914,89.393345 2.4083161,89.238836 l -0.3222464,-0.0698 0.081388,-0.09555 0.4411981,-0.141633 0.6337585,-0.07048 0.6681164,0.0088 0.5442652,0.09487 0.6064483,0.248028 0.4054916,0.319184 0.2752159,0.473692 0.2156013,0.710878 0.3730717,0.974491 0.3391679,0.473015 0.055637,-0.261581 0.6321863,-1.339757 0.1015152,0.04676 0.038763,0.311052 0.059093,0.323927 0.1709087,0.200591 0.2554145,0.06099 0.3125421,-0.09555 0.4181234,-0.191103 0.090672,0.0054 0.00901,0.082 -0.8199827,1.252338 -0.050283,0.210078 0.2574474,0.05625 1.3605613,-0.347646 0.5868642,-0.147055 0.566059,-0.03253 0.53719,0.07793 0.50046,0.185005 0.45587,0.287332 0.403282,0.386273 0.342835,0.481147 0.274389,0.572632 0.115543,0.300209 -0.314101,-0.203979 -0.471321,-0.239896 -0.429237,-0.07725 -0.390271,0.08471 -0.354558,0.24735 -0.219091,0.212789 -0.252229,-0.218211 -0.333144,-0.208723 -0.341478,-0.04337 -0.3700092,0.124692 -0.4190721,0.294787 -0.3049522,0.258193 -0.2248515,-0.260226 -0.5308879,-0.394405 -0.6436525,-0.03321 -0.8161199,0.342225 -1.0484934,0.728496 -0.1753001,0.123337 0.019137,-0.0759 h 3.39e-5"
       style="fill:#000000;stroke-width:0.222059"
       id="path1-8-2-3-3" />
    <path
       d="m 66.65056,109.89698 -0.542273,-0.78678 -0.782508,-0.72104 -0.376853,-0.13147 -0.38817,0.0176 -0.353948,0.15519 -0.274186,0.28258 -0.149427,0.1762 -0.07725,-0.12063 -0.214348,-0.37949 -0.380173,-0.27446 -0.473761,-0.13486 -0.495174,0.0393 -0.195712,0.0217 -0.163996,-0.13485 -0.337413,-0.21618 -0.43493,-0.0563 -0.480672,0.10098 -0.474845,0.25616 -0.276964,0.1789 -0.01037,-0.12537 0.211772,-0.41202 0.398471,-0.49809 0.478504,-0.46624 0.452075,-0.31783 0.604076,-0.25345 0.512726,-0.061 0.529601,0.14096 0.65463,0.34968 0.952942,0.42558 0.574666,0.0949 -0.145903,-0.22499 -0.500393,-1.39397 0.105378,-0.0386 0.247147,0.19245 0.27073,0.18704 0.262801,0.021 0.223632,-0.13757 0.153289,-0.28869 0.160744,-0.43032 0.0677,-0.0603 0.06451,0.0515 0.305562,1.46513 0.113104,0.18433 0.221531,-0.14299 0.716299,-1.20761 0.311119,-0.5191 0.377463,-0.42287 0.435065,-0.3246 0.484535,-0.22296 0.525196,-0.11927 0.558401,-0.0122 0.582797,0.0983 0.599062,0.21075 0.293432,0.13012 -0.365943,0.0779 -0.502832,0.164 -0.358488,0.2487 -0.2155,0.33613 -0.0759,0.42557 -0.0047,0.30496 -0.332737,0.0244 -0.382884,0.0881 -0.272424,0.21076 -0.172806,0.34967 -0.0881,0.50487 -0.03388,0.39779 -0.342224,-0.0244 -0.654767,0.0962 -0.478436,0.43167 -0.335515,0.81863 -0.226003,1.25708 -0.0368,0.21076 -0.04005,-0.0671 h 3.39e-4"
       style="fill:#000000;stroke-width:0.222059"
       id="path1-8-0-2" />
    <path
       d="m 36.818169,110.6248 0.173077,-0.93993 -0.04337,-1.06327 -0.173755,-0.35917 -0.286723,-0.26226 -0.360047,-0.14027 -0.393659,0.005 -0.230205,0.019 0.03029,-0.13892 0.116898,-0.42016 -0.07468,-0.46285 -0.239693,-0.431 -0.378005,-0.32189 -0.153899,-0.12266 -0.02033,-0.21211 -0.08566,-0.39169 -0.267748,-0.34697 -0.41155,-0.26836 -0.516928,-0.15451 -0.322233,-0.0691 0.08139,-0.0962 0.441232,-0.14163 0.633759,-0.0705 0.668049,0.009 0.544305,0.0949 0.606449,0.24803 0.405451,0.31918 0.27527,0.4737 0.215567,0.71087 0.373058,0.97449 0.339175,0.47302 0.05564,-0.26158 0.6322,-1.33976 0.101583,0.0474 0.0387,0.31037 0.05909,0.32393 0.170908,0.20059 0.255415,0.061 0.312542,-0.0956 0.418123,-0.1911 0.09067,0.005 0.009,0.082 -0.820051,1.25234 -0.05022,0.21008 0.257447,0.0563 1.360562,-0.34765 0.586863,-0.14705 0.565992,-0.0325 0.53719,0.0779 0.500528,0.185 0.45587,0.28734 0.403282,0.38627 0.342766,0.48115 0.27439,0.57263 0.11561,0.30021 -0.3141,-0.20398 -0.471321,-0.2399 -0.429237,-0.0772 -0.390339,0.0847 -0.354558,0.24735 -0.219091,0.21279 -0.252162,-0.21821 -0.333143,-0.20873 -0.341479,-0.0427 -0.370008,0.12469 -0.419072,0.29479 -0.304953,0.25751 -0.224851,-0.26022 -0.530888,-0.39441 -0.643653,-0.0332 -0.816187,0.34222 -1.048426,0.7285 -0.175314,0.12334 0.01911,-0.0759 h 6.8e-5"
       style="fill:#000000;stroke-width:0.222059"
       id="path1-8-2-0-8" />
    <path
       d="m 47.890916,106.93758 0.173077,-0.93993 -0.04337,-1.06326 -0.173755,-0.35917 -0.286723,-0.26226 -0.360047,-0.14095 -0.393659,0.006 -0.230205,0.019 0.03029,-0.1396 0.116898,-0.42016 -0.07468,-0.46285 -0.239693,-0.43032 -0.378005,-0.32189 -0.153831,-0.12334 -0.02033,-0.21143 -0.08566,-0.3917 -0.267748,-0.34696 -0.41155,-0.26836 -0.516996,-0.15451 -0.322233,-0.0691 0.08139,-0.0962 0.441232,-0.14164 0.633758,-0.0705 0.668049,0.009 0.544306,0.0949 0.606448,0.24803 0.405451,0.31918 0.27527,0.47369 0.215567,0.7102 0.373059,0.9745 0.339174,0.47369 0.05564,-0.26158 0.6322,-1.34044 0.101515,0.0474 0.03876,0.31105 0.05909,0.32393 0.170909,0.20059 0.255414,0.061 0.312542,-0.0956 0.418123,-0.19111 0.09067,0.005 0.009,0.082 -0.819983,1.25166 -0.05028,0.21076 0.257448,0.0556 1.360561,-0.34765 0.586863,-0.14705 0.566059,-0.0318 0.537191,0.0779 0.50046,0.185 0.45587,0.28734 0.403282,0.38627 0.342834,0.48115 0.27439,0.57263 0.115543,0.29953 -0.314101,-0.20398 -0.471321,-0.23922 -0.429237,-0.0773 -0.390271,0.0847 -0.354558,0.24667 -0.219091,0.21279 -0.252229,-0.21821 -0.333144,-0.20805 -0.341479,-0.0434 -0.370008,0.12469 -0.419072,0.29479 -0.304953,0.25819 -0.224851,-0.26022 -0.530888,-0.39509 -0.643652,-0.0325 -0.81612,0.34154 -1.048494,0.72918 -0.175313,0.12333 0.01918,-0.0759 v 0"
       style="fill:#000000;stroke-width:0.222059"
       id="path1-8-2-3-0" />
    <path
       id="rect2"
       style="fill:none;stroke:#000000;stroke-width:0.1"
       d="m 0.05,0.05 h 78 v 122 h -78 v -122" />
  </g>
</svg>
